<svg viewBox="0 0 32 32" fill="none" xmlns="http://www.w3.org/2000/svg" xmlns:anim="http://www.w3.org/2000/anim" anim="" anim:transform-origin="50% 50%" anim:duration="0.5" anim:ease="power1.inOut">
  <g id="5842805ccdf70ed372951263814eb9ee">
    <path id="03bc4d9123dd53178c8b26f71167e120" d="M31 16C31 24.2843 24.2843 31 16 31C7.71573 31 1 24.2843 1 16C1 7.71573 7.71573 1 16 1C24.2843 1 31 7.71573 31 16Z" stroke="#004E98" stroke-width="2"></path>
    <g id="80280e2682656a8d347626bbe25b4cca">
      <g id="04c197f30079ec7144d8f87bfc43b437">
        <path id="a9a14c524890795c802601d3b040706a" fill-rule="evenodd" clip-rule="evenodd" d="M22.1607 14.6607H17.6071C17.4592 14.6607 17.3393 14.5408 17.3393 14.3929V9.83929C17.3393 9.09967 16.7396 8.5 16 8.5C15.2604 8.5 14.6607 9.09967 14.6607 9.83929V14.3929C14.6607 14.5408 14.5408 14.6607 14.3929 14.6607H9.83929C9.09967 14.6607 8.5 15.2604 8.5 16C8.5 16.7396 9.09967 17.3393 9.83929 17.3393H14.3929C14.5408 17.3393 14.6607 17.4592 14.6607 17.6071V22.1607C14.6607 22.9003 15.2604 23.5 16 23.5C16.7396 23.5 17.3393 22.9003 17.3393 22.1607V17.6071C17.3393 17.4592 17.4592 17.3393 17.6071 17.3393H22.1607C22.9003 17.3393 23.5 16.7396 23.5 16C23.5 15.2604 22.9003 14.6607 22.1607 14.6607Z" fill="#004E98" stroke="white"></path>
      </g>
    </g>
  </g>
</svg>