<svg width="24" height="24" viewBox="0 0 24 24" fill="none" xmlns="http://www.w3.org/2000/svg">
<path fill-rule="evenodd" clip-rule="evenodd" d="M18.4167 11.5C16.9006 11.5 15.6667 12.7338 15.6667 14.25C15.6667 15.7662 16.9006 17 18.4167 17C19.9329 17 21.1667 15.7662 21.1667 14.25C21.1667 12.7338 19.9329 11.5 18.4167 11.5ZM18.4167 16.0833C17.4057 16.0833 16.5834 15.2611 16.5834 14.25C16.5834 13.2389 17.4057 12.4167 18.4167 12.4167C19.4278 12.4167 20.2501 13.2389 20.2501 14.25C20.2501 15.2611 19.4278 16.0833 18.4167 16.0833Z" fill="#877EF2"/>
<path fill-rule="evenodd" clip-rule="evenodd" d="M18.1252 8.75185C17.4542 8.2165 14.3897 6 9.70835 6C8.82285 6 6.56325 6.09075 4.52735 6.91665H2.375C2.18985 6.91665 2.0221 7.0285 1.9515 7.1999C1.88 7.3713 1.9194 7.5675 2.0505 7.6995L2.49785 8.14685C1.50325 9.03965 1 10.1653 1 11.5C1 13.0739 1.1421 15.1667 2.375 15.1667H2.5684C2.4456 14.8853 2.375 14.5763 2.375 14.25C2.375 12.9841 3.40075 11.9583 4.66665 11.9583C5.93255 11.9583 6.9583 12.9841 6.9583 14.25C6.9583 14.5763 6.88771 14.8853 6.7649 15.1667H16.3184C16.1956 14.8853 16.125 14.5763 16.125 14.25C16.125 12.9841 17.1508 11.9583 18.4167 11.9583C19.6826 11.9583 20.7083 12.9841 20.7083 14.25C20.7083 14.5763 20.6377 14.8853 20.5149 15.1667H21.625C22.1787 15.1667 23 14.5892 23 13.7917V11.9583C23 11.0893 21.4994 8.82425 18.1252 8.75185ZM15.2083 10.5833H10.625C10.372 10.5833 10.1667 10.378 10.1667 10.125V8.29165C10.1667 8.03865 10.372 7.8333 10.625 7.8333C10.878 7.8333 11.0833 8.03865 11.0833 8.29165V9.66665H15.2083C15.4613 9.66665 15.6667 9.872 15.6667 10.125C15.6667 10.378 15.4613 10.5833 15.2083 10.5833Z" fill="#877EF2"/>
<path fill-rule="evenodd" clip-rule="evenodd" d="M4.66675 11.5C3.1506 11.5 1.91675 12.7338 1.91675 14.25C1.91675 15.7662 3.1506 17 4.66675 17C6.1829 17 7.41675 15.7662 7.41675 14.25C7.41675 12.7338 6.18294 11.5 4.66675 11.5ZM4.66675 16.0833C3.65565 16.0833 2.8334 15.2611 2.8334 14.25C2.8334 13.2389 3.65565 12.4167 4.66675 12.4167C5.67785 12.4167 6.5001 13.2389 6.5001 14.25C6.5001 15.2611 5.67785 16.0833 4.66675 16.0833Z" fill="#877EF2"/>
</svg>
