<svg width="24" height="24" viewBox="0 0 24 24" fill="none" xmlns="http://www.w3.org/2000/svg">
<path fill-rule="evenodd" clip-rule="evenodd" d="M14.3828 3.00086H3.75781C2.78512 3.00086 2 3.78598 2 4.75867V11.7899C2 12.7625 2.78512 13.5477 3.75781 13.5477H4.34375V15.3055C4.34375 15.7289 4.78207 16.0354 5.21094 15.8212C5.22266 15.8095 5.24613 15.8095 5.25785 15.7977C8.48113 13.6362 7.75875 14.1181 8.48051 13.6414C8.57422 13.5829 8.67969 13.5477 8.79688 13.5477H14.3828C15.3555 13.5477 16.1406 12.7625 16.1406 11.7899V4.75867C16.1406 3.78598 15.3555 3.00086 14.3828 3.00086ZM9.69531 10.0321H4.92969C4.1573 10.0321 4.15414 8.86024 4.92969 8.86024H9.69531C10.4677 8.86024 10.4709 10.0321 9.69531 10.0321ZM13.2109 7.68836H4.92969C4.1573 7.68836 4.15414 6.51649 4.92969 6.51649H13.2109C13.9833 6.51649 13.9865 7.68836 13.2109 7.68836Z" fill="#877EF2"/>
<path fill-rule="evenodd" clip-rule="evenodd" d="M20.2422 7.68836H17.3125V11.7899C17.3125 13.4071 16 14.7196 14.3828 14.7196H8.97266L7.85938 15.4579V16.4774C7.85938 17.45 8.64449 18.2352 9.61719 18.2352H15.3789L18.7421 20.4852C19.2012 20.7401 19.6562 20.4301 19.6562 19.993V18.2352H20.2422C21.2149 18.2352 22 17.45 22 16.4774V9.44617C22 8.47352 21.2149 7.68836 20.2422 7.68836Z" fill="#877EF2"/>
</svg>
