<svg width="18" height="18" viewBox="0 0 18 18" fill="none" xmlns="http://www.w3.org/2000/svg">
<path fill-rule="evenodd" clip-rule="evenodd" d="M0.666656 9.00002C0.666656 4.40484 4.40481 0.666687 8.99999 0.666687C13.5952 0.666687 17.3333 4.40484 17.3333 9.00002C17.3333 13.5952 13.5952 17.3334 8.99999 17.3334C4.40481 17.3334 0.666656 13.5952 0.666656 9.00002ZM12.4723 13.514C12.65 13.514 12.8278 13.4458 12.9632 13.3104C13.2347 13.0389 13.2347 12.6001 12.9632 12.3285L9.69439 9.05978V4.83335C9.69439 4.44934 9.38337 4.13895 8.99999 4.13895C8.61661 4.13895 8.30559 4.44934 8.30559 4.83335V9.34729C8.30559 9.53192 8.37845 9.70841 8.50904 9.83824L11.9813 13.3104C12.1166 13.4458 12.2945 13.514 12.4723 13.514Z" fill="url(#paint0_linear_55_492)"/>
<defs>
<linearGradient id="paint0_linear_55_492" x1="17.2132" y1="1.02111" x2="1.01523" y2="1.02111" gradientUnits="userSpaceOnUse">
<stop stop-color="#6BF1F1"/>
<stop offset="1" stop-color="#3FD7D7"/>
</linearGradient>
</defs>
</svg>
