<svg viewBox="0 0 59 58" fill="none" xmlns="http://www.w3.org/2000/svg" xmlns:anim="http://www.w3.org/2000/anim" anim="" anim:transform-origin="50% 50%" anim:duration="0.5" anim:ease="power1.inOut">
  <g id="558b439fd0d73c6a9c57b8f6347f86ed">
    <g id="f00b0d43c308f7b042d94ecb50bcd0e6">
      <rect id="46963c315ff666e5d327cc016b127252" x="0.514404" width="57.971" height="57.971" rx="28.9855" fill="url(#2fd0a15b61b897dffd47cded4b915ae2)"></rect>
      <g id="6f495c9f0f338e0d3e02ec4bcf5bd377">
        <g id="78eeefca4876d7746015d28bc9d75195">
          <path id="8097bc253ecee640199336f5b02e378f" fill-rule="evenodd" clip-rule="evenodd" d="M20.2216 23.193C15.7314 23.193 12.0784 26.8461 12.0784 31.3362C12.0784 34.1241 13.4045 37.1215 16.0201 40.2453C17.9458 42.5452 19.8436 44.0232 19.9235 44.085C20.0112 44.1529 20.1165 44.1868 20.2216 44.1868C20.3268 44.1868 20.4319 44.1529 20.5197 44.085C20.5995 44.0232 22.4975 42.5452 24.4231 40.2453C27.0387 37.1215 28.3648 34.124 28.3648 31.3362C28.3648 26.8461 24.7118 23.193 20.2216 23.193ZM23.2753 31.3362C23.2753 33.0227 21.9081 34.3898 20.2216 34.3898C18.5352 34.3898 17.168 33.0227 17.168 31.3362C17.168 29.6498 18.5352 28.2826 20.2216 28.2826C21.9081 28.2826 23.2753 29.6498 23.2753 31.3362Z" fill="white"></path>
          <path id="fb2d614453c73ee57990ef7870040a60" fill-rule="evenodd" clip-rule="evenodd" d="M38.8894 13.2096C35.3762 13.2096 32.5181 16.0678 32.5181 19.581C32.5181 21.7508 33.5462 24.0789 35.5739 26.5007C37.0616 28.2775 38.5297 29.4207 38.5914 29.4685C38.6792 29.5364 38.7843 29.5703 38.8895 29.5703C38.9946 29.5703 39.0997 29.5364 39.1876 29.4685C39.2493 29.4207 40.7174 28.2775 42.2051 26.5007C44.2328 24.0789 45.2609 21.7509 45.2609 19.581C45.2607 16.0678 42.4026 13.2096 38.8894 13.2096ZM41.2364 19.581C41.2364 20.8772 40.1856 21.928 38.8894 21.928C37.5932 21.928 36.5424 20.8772 36.5424 19.581C36.5424 18.2848 37.5932 17.234 38.8894 17.234C40.1856 17.234 41.2364 18.2848 41.2364 19.581Z" fill="white"></path>
          <g id="93bb0718ff3be04141c18c73464a6cad">
            <path id="1ad418ccdd980ff9d9c1352c00def9dd" fill-rule="evenodd" clip-rule="evenodd" d="M20.2215 23.193C19.9114 23.193 19.6054 23.211 19.3043 23.245C23.3642 23.7021 26.5302 27.1561 26.5302 31.3362C26.5302 34.1241 25.204 37.1215 22.5885 40.2453C21.304 41.7794 20.0327 42.9469 19.3042 43.5733C19.6679 43.886 19.8968 44.0644 19.9234 44.0849C20.0111 44.1528 20.1164 44.1868 20.2215 44.1868C20.3267 44.1868 20.4318 44.1528 20.5196 44.0849C20.5994 44.0231 22.4974 42.5451 24.423 40.2452C27.0386 37.1214 28.3647 34.1239 28.3647 31.3362C28.3647 26.846 24.7117 23.193 20.2215 23.193Z" fill="#979797"></path>
            <path id="71b7559abfd8bbe40b0ea32ed58ddf65" fill-rule="evenodd" clip-rule="evenodd" d="M38.8892 13.2096C38.5778 13.2096 38.2716 13.2324 37.9719 13.2759C41.0519 13.7219 43.426 16.3793 43.426 19.581C43.426 21.7508 42.3979 24.0789 40.3703 26.5007C39.4559 27.5928 38.5496 28.4448 37.9719 28.951C38.3341 29.2683 38.5673 29.4501 38.5912 29.4684C38.6789 29.5364 38.7841 29.5703 38.8892 29.5703C38.9944 29.5703 39.0995 29.5364 39.1873 29.4684C39.2491 29.4206 40.7171 28.2775 42.2048 26.5006C44.2325 24.0789 45.2606 21.7508 45.2606 19.5809C45.2605 16.0678 42.4024 13.2096 38.8892 13.2096Z" fill="#979797"></path>
          </g>
          <path id="e4d9ff2ce680f06c84cd0b356537d1a2" fill-rule="evenodd" clip-rule="evenodd" d="M27.776 44.2753C27.5081 44.2753 27.2903 44.0587 27.2891 43.7904C27.2878 43.5214 27.5049 43.3024 27.7739 43.3012L28.4171 43.2983C28.4179 43.2983 28.4186 43.2983 28.4194 43.2983C28.6873 43.2983 28.9052 43.5148 28.9064 43.7831C28.9076 44.0521 28.6905 44.2712 28.4215 44.2723L27.7783 44.2753C27.7775 44.2753 27.7767 44.2753 27.776 44.2753ZM30.349 44.2636C30.0811 44.2636 29.8633 44.047 29.8621 43.7788C29.8608 43.5097 30.0779 43.2907 30.3469 43.2895L30.9901 43.2866C30.9909 43.2866 30.9916 43.2866 30.9924 43.2866C31.2603 43.2866 31.4781 43.5031 31.4794 43.7714C31.4806 44.0404 31.2635 44.2595 30.9945 44.2607L30.3513 44.2636C30.3505 44.2636 30.3497 44.2636 30.349 44.2636ZM32.9221 44.2518C32.6542 44.2518 32.4364 44.0353 32.4351 43.767C32.4339 43.4981 32.6509 43.2789 32.92 43.2778L33.5631 43.2749C33.5639 43.2749 33.5646 43.2749 33.5654 43.2749C33.8333 43.2749 34.0511 43.4914 34.0524 43.7597C34.0535 44.0287 33.8365 44.2477 33.5675 44.2489L32.9244 44.2518C32.9236 44.2518 32.9228 44.2518 32.9221 44.2518ZM35.4952 44.2402C35.2273 44.2402 35.0094 44.0236 35.0082 43.7553C35.007 43.4864 35.224 43.2673 35.493 43.2661L36.1363 43.2632C36.137 43.2632 36.1378 43.2632 36.1385 43.2632C36.4064 43.2632 36.6243 43.4797 36.6255 43.748C36.6267 44.0169 36.4097 44.2361 36.1407 44.2372L35.4974 44.2402C35.4967 44.2402 35.4959 44.2402 35.4952 44.2402ZM38.0682 44.2285C37.8003 44.2285 37.5824 44.012 37.5812 43.7437C37.58 43.4747 37.797 43.2557 38.066 43.2545L38.7093 43.2516C38.71 43.2516 38.7107 43.2516 38.7115 43.2516C38.9794 43.2516 39.1973 43.4681 39.1985 43.7364C39.1997 44.0054 38.9827 44.2245 38.7137 44.2256L38.0704 44.2285C38.0697 44.2285 38.0689 44.2285 38.0682 44.2285ZM40.6412 44.2169C40.3734 44.2169 40.1556 44.0004 40.1543 43.7322C40.1529 43.4632 40.3699 43.2441 40.639 43.2428L40.7301 43.2424C40.8931 43.2416 41.0563 43.2301 41.2158 43.208C41.4818 43.1709 41.728 43.3574 41.7649 43.6238C41.8017 43.8903 41.6156 44.1361 41.3491 44.173C41.1471 44.2008 40.9403 44.2155 40.7346 44.2164L40.6436 44.2169C40.6429 44.2169 40.642 44.2169 40.6412 44.2169ZM43.0641 43.4831C42.9098 43.4831 42.758 43.41 42.6634 43.2736C42.5103 43.0525 42.5652 42.7491 42.7862 42.5957C42.9414 42.4883 43.0892 42.3677 43.2259 42.2375C43.4205 42.0519 43.7288 42.0594 43.9145 42.2541C44.1 42.4488 44.0926 42.7571 43.8979 42.9427C43.7249 43.1076 43.5376 43.2601 43.3413 43.3962C43.2565 43.455 43.1599 43.4831 43.0641 43.4831ZM44.6044 41.4748C44.5501 41.4748 44.4948 41.4657 44.4408 41.4464C44.1874 41.356 44.0553 41.0774 44.1455 40.8241C44.2089 40.6467 44.2585 40.4628 44.2934 40.2774C44.3433 40.0131 44.5982 39.8392 44.8621 39.889C45.1264 39.9387 45.3004 40.1934 45.2506 40.4577C45.2063 40.6928 45.1432 40.9262 45.0629 41.1513C44.992 41.3505 44.8044 41.4748 44.6044 41.4748ZM44.6832 38.945C44.4715 38.945 44.2766 38.8058 44.2153 38.5921C44.1634 38.4112 44.0966 38.2326 44.0168 38.0617C43.9031 37.8179 44.0085 37.5281 44.2522 37.4144C44.4962 37.3007 44.7858 37.4061 44.8995 37.6498C45.0008 37.8668 45.0856 38.0934 45.1516 38.3234C45.2257 38.5819 45.0764 38.8517 44.8178 38.9259C44.7729 38.9388 44.7277 38.945 44.6832 38.945ZM43.2707 36.8439C43.1649 36.8439 43.0586 36.8098 42.9692 36.7392C42.8211 36.6222 42.6626 36.516 42.4985 36.4235C42.2641 36.2916 42.1811 35.9945 42.3131 35.7602C42.4452 35.5258 42.7423 35.4428 42.9765 35.5749C43.1845 35.692 43.3851 35.8265 43.5728 35.9746C43.7838 36.1412 43.8199 36.4475 43.6532 36.6586C43.5571 36.7804 43.4146 36.8439 43.2707 36.8439ZM40.8999 35.9612C40.8926 35.9612 40.8853 35.9611 40.8779 35.9607C40.8235 35.9583 40.7687 35.9571 40.7137 35.9571H40.2563C39.9873 35.9571 39.7693 35.7391 39.7693 35.47C39.7693 35.2011 39.9872 34.983 40.2563 34.983H40.7137C40.7824 34.983 40.8521 34.9845 40.921 34.9876C41.1897 34.9995 41.3979 35.227 41.3859 35.4957C41.3745 35.7571 41.1589 35.9612 40.8999 35.9612ZM38.3265 35.9571H37.6833C37.4143 35.9571 37.1963 35.7392 37.1963 35.4701C37.1963 35.2012 37.4143 34.9831 37.6833 34.9831H38.3265C38.5955 34.9831 38.8136 35.2012 38.8136 35.4701C38.8136 35.7391 38.5955 35.9571 38.3265 35.9571ZM35.7535 35.9571H35.1102C34.8412 35.9571 34.6232 35.7392 34.6232 35.4701C34.6232 35.2012 34.8412 34.9831 35.1102 34.9831H35.7535C36.0225 34.9831 36.2405 35.2012 36.2405 35.4701C36.2405 35.7391 36.0225 35.9571 35.7535 35.9571ZM33.1803 35.9571H32.5371C32.2681 35.9571 32.0501 35.7392 32.0501 35.4701C32.0501 35.2012 32.2681 34.9831 32.5371 34.9831H33.1803C33.4493 34.9831 33.6674 35.2012 33.6674 35.4701C33.6674 35.7391 33.4494 35.9571 33.1803 35.9571ZM30.6992 35.4727C30.6104 35.4727 30.5205 35.4484 30.4398 35.3976C30.231 35.2659 30.0349 35.1121 29.8566 34.9408C29.6628 34.7543 29.6568 34.446 29.8433 34.2522C30.0296 34.0585 30.3379 34.0523 30.5318 34.2388C30.6625 34.3645 30.8064 34.4773 30.9595 34.5737C31.1871 34.7172 31.2552 35.018 31.1116 35.2455C31.0189 35.3923 30.8608 35.4727 30.6992 35.4727ZM29.2837 33.4095C29.0552 33.4095 28.8515 33.2481 28.8061 33.0156C28.7615 32.7865 28.7389 32.5512 28.7389 32.3159L28.7391 32.2775C28.7422 32.0105 28.9596 31.7962 29.226 31.7962C29.2279 31.7962 29.2299 31.7962 29.2317 31.7962C29.5008 31.7993 29.7162 32.0199 29.7131 32.2888L29.7129 32.3159C29.7129 32.4887 29.7295 32.6614 29.7622 32.8292C29.8137 33.0933 29.6414 33.349 29.3774 33.4004C29.3459 33.4066 29.3145 33.4095 29.2837 33.4095ZM29.8159 30.9652C29.7175 30.9652 29.6182 30.9355 29.5322 30.8737C29.3137 30.7168 29.2639 30.4125 29.4207 30.194C29.5648 29.9933 29.73 29.8067 29.9116 29.6393C30.1094 29.4569 30.4174 29.4695 30.5998 29.667C30.7822 29.8648 30.7697 30.1729 30.572 30.3552C30.4388 30.4781 30.3176 30.615 30.2119 30.7623C30.1167 30.8947 29.9675 30.9652 29.8159 30.9652ZM31.96 29.6764C31.7196 29.6764 31.5104 29.4984 31.4778 29.2535C31.4423 28.9869 31.6297 28.742 31.8963 28.7065C32.0555 28.6853 32.2182 28.6746 32.3801 28.6746H32.6025C32.8715 28.6746 33.0895 28.8926 33.0895 29.1616C33.0895 29.4306 32.8715 29.6486 32.6025 29.6486H32.3801C32.261 29.6486 32.1415 29.6565 32.0248 29.672C32.003 29.675 31.9814 29.6764 31.96 29.6764Z" fill="white"></path>
        </g>
      </g>
    </g>
  </g>
  <defs>
    <linearGradient id="2fd0a15b61b897dffd47cded4b915ae2" x1="0.514403" y1="5.43478" x2="53.9564" y2="61.5942" gradientUnits="userSpaceOnUse">
      <stop stop-color="#4474A2"></stop>
      <stop offset="1" stop-color="#406C96"></stop>
    </linearGradient>
  </defs>
</svg>