<svg viewBox="0 0 24 24" fill="none" xmlns="http://www.w3.org/2000/svg" xmlns:anim="http://www.w3.org/2000/anim" anim="" anim:transform-origin="50% 50%" anim:duration="0.5" anim:ease="power1.inOut">
  <g id="44cd7709886f501947d82182a0ebd60d">
    <g id="1e3f943b95cac7691a0321ee77cb88db">
      <g id="93567e39fb167f944582f57a05115530">
        <path id="71a60712857e93fed980cd1c56bc1e19" fill-rule="evenodd" clip-rule="evenodd" d="M18.345 12.2312C19.1698 12.2312 19.8386 12.8998 19.8386 13.7248C19.8386 13.7884 19.8334 13.851 19.8254 13.9124C19.7328 14.6486 19.1062 15.218 18.3452 15.218C17.5636 15.218 16.9228 14.6172 16.8578 13.852C16.8544 13.8102 16.8516 13.7676 16.8516 13.7246C16.8514 12.8998 17.52 12.2312 18.345 12.2312ZM19.0926 13.162L18.7882 13.4666C18.8118 13.5072 18.8304 13.551 18.8424 13.5978H19.2716C19.2496 13.4354 19.1874 13.287 19.0926 13.162ZM18.841 13.8564H19.2736C19.2502 14.0186 19.1866 14.167 19.092 14.291L18.7868 13.986C18.8108 13.946 18.8288 13.9024 18.841 13.8564ZM18.4742 14.6526C18.636 14.63 18.783 14.5666 18.9074 14.4728L18.6038 14.169C18.5638 14.1924 18.52 14.2096 18.4742 14.2216V14.6526ZM18.6062 13.283C18.5652 13.2588 18.5212 13.2404 18.4742 13.228V12.7984C18.637 12.821 18.7854 12.8838 18.9104 12.9788L18.6062 13.283ZM18.2156 12.798C18.0528 12.8206 17.9042 12.8838 17.7794 12.9786L18.0834 13.2828C18.1242 13.2586 18.1686 13.2402 18.2154 13.2278L18.2156 12.798ZM18.2156 14.2218V14.6522C18.054 14.6296 17.9068 14.5666 17.7824 14.4728L18.0862 14.169C18.1262 14.1926 18.1696 14.2096 18.2156 14.2218ZM17.5972 14.2924L17.9034 13.9858C17.8794 13.9456 17.86 13.9026 17.8478 13.8566H17.4186C17.4414 14.0182 17.5024 14.1678 17.5972 14.2924ZM17.9014 13.4666C17.8778 13.5072 17.8594 13.551 17.8472 13.5978V13.598H17.4178C17.4402 13.4354 17.5024 13.287 17.5966 13.162L17.9014 13.4666Z" fill="url(#8a35907fbdcf3ada9128986be9c7b87e)"></path>
        <path id="585e367895cfe2de8ff9b48912ddd01e" fill-rule="evenodd" clip-rule="evenodd" d="M5.94317 12.2312C6.76797 12.2312 7.43677 12.8998 7.43677 13.7248C7.43677 13.7884 7.43157 13.851 7.42357 13.9124C7.33097 14.6486 6.70437 15.218 5.94357 15.218C5.16197 15.218 4.52117 14.6172 4.45597 13.852C4.45257 13.8102 4.44977 13.7676 4.44977 13.7246C4.44937 12.8998 5.11817 12.2312 5.94317 12.2312ZM6.69077 13.162L6.38657 13.4666C6.41017 13.5072 6.42877 13.551 6.44077 13.5978H6.86997C6.84777 13.4354 6.78557 13.287 6.69077 13.162ZM6.43897 13.8564H6.87157C6.84857 14.0186 6.78477 14.167 6.68977 14.291L6.38477 13.986C6.40877 13.946 6.42677 13.9024 6.43897 13.8564ZM6.07237 14.6526C6.23417 14.63 6.38117 14.5666 6.50557 14.4728L6.20197 14.169C6.16197 14.1924 6.11817 14.2096 6.07237 14.2216V14.6526ZM6.20437 13.283C6.16337 13.2588 6.11937 13.2404 6.07237 13.228V12.7984C6.23537 12.821 6.38357 12.8838 6.50857 12.9788L6.20437 13.283ZM5.81357 12.798C5.65077 12.8206 5.50217 12.8838 5.37737 12.9786L5.68157 13.2828C5.72237 13.2586 5.76677 13.2398 5.81357 13.2278V12.798ZM5.81357 14.2218V14.6522C5.65217 14.6296 5.50477 14.5666 5.38037 14.4728L5.68417 14.169C5.72417 14.1926 5.76757 14.2096 5.81357 14.2218ZM5.19537 14.2924L5.50157 13.9862C5.47757 13.9458 5.45797 13.903 5.44597 13.8568H5.01677C5.03957 14.0182 5.10037 14.1678 5.19537 14.2924ZM5.49957 13.4666C5.47577 13.5072 5.45757 13.551 5.44537 13.5978V13.598H5.01597C5.03857 13.4354 5.10057 13.287 5.19497 13.162L5.49957 13.4666Z" fill="url(#3e7d05fd7dc99d17bc26f7fa86ebcc3a)"></path>
        <path id="96aaea3ebff0bc2e8ea78943381f629b" fill-rule="evenodd" clip-rule="evenodd" d="M2.35673 10.3528V11.458C2.35673 11.458 2.00653 11.712 2.00673 12.2816C2.00673 13.1356 2.58973 13.446 2.58973 13.446L4.11193 13.7326L4.14993 13.7358L4.14968 13.7322C4.14951 13.73 4.14933 13.7277 4.14933 13.7252C4.14933 12.736 4.95393 11.9316 5.94313 11.9316C6.93233 11.9316 7.73673 12.7362 7.73673 13.7252C7.73673 13.7958 7.73173 13.8698 7.72113 13.9502C7.71918 13.9655 7.71629 13.9804 7.71341 13.9954L7.70893 14.0194L16.6121 14.1986H16.6169C16.5879 14.0948 16.5679 13.987 16.5585 13.876C16.5547 13.8264 16.5513 13.776 16.5513 13.7252C16.5513 12.736 17.3557 11.9314 18.3449 11.9314C19.3341 11.9314 20.1385 12.7362 20.1385 13.7252C20.1385 13.7956 20.1335 13.8694 20.1229 13.9502C20.1191 13.9807 20.1134 14.0106 20.1076 14.0406L20.1035 14.0622C20.7151 13.9922 21.2441 13.8878 21.5189 13.7324C21.7885 13.2938 21.8241 12.664 21.7885 12.5324L21.777 12.4893C21.7395 12.348 21.6731 12.0975 21.4991 11.6306C21.3059 11.1122 17.6773 10.3558 17.3107 10.3478C16.722 10.0989 15.9382 9.74141 15.2257 9.41642L15.2257 9.41641L15.2256 9.41638C14.4317 9.05424 13.7264 8.73252 13.4783 8.64661C10.8535 7.73676 8.11953 8.38869 7.27921 8.58906C7.22921 8.60099 7.18591 8.61131 7.14973 8.61961C6.75119 8.71111 5.8869 9.04763 5.17207 9.32595L5.17204 9.32596C4.73214 9.49724 4.34885 9.64648 4.16553 9.70301C3.82993 9.80641 3.08293 9.93101 2.66153 9.99701C2.48593 10.0244 2.35673 10.175 2.35673 10.3528ZM14.5135 10.512L11.1885 10.4102L10.7615 8.66161C10.7615 8.66161 13.4255 8.70221 14.7473 9.90201C14.7473 9.90201 14.4523 10.0138 14.5135 10.512ZM7.45693 10.258L10.4869 10.3598L10.2123 8.66181C8.64633 8.64141 7.75173 8.98701 7.75173 8.98701L7.30433 9.70901L7.45693 10.258ZM6.59293 10.2476H5.74873C5.71193 10.0446 5.81193 9.84121 5.99513 9.74601C6.29693 9.58901 6.80373 9.34061 7.43693 9.08861L6.59293 10.2476Z" fill="url(#a360642a1744e6e9796d59f0de1abb9c)"></path>
      </g>
    </g>
  </g>
  <defs>
    <linearGradient id="8a35907fbdcf3ada9128986be9c7b87e" x1="16.8731" y1="12.2742" x2="19.8171" y2="12.2742" gradientUnits="userSpaceOnUse">
      <stop stop-color="#025099"></stop>
      <stop offset="1" stop-color="#4776A2"></stop>
    </linearGradient>
    <linearGradient id="3e7d05fd7dc99d17bc26f7fa86ebcc3a" x1="4.47129" y1="12.2742" x2="7.41525" y2="12.2742" gradientUnits="userSpaceOnUse">
      <stop stop-color="#025099"></stop>
      <stop offset="1" stop-color="#4776A2"></stop>
    </linearGradient>
    <linearGradient id="a360642a1744e6e9796d59f0de1abb9c" x1="2.14935" y1="8.26209" x2="21.6574" y2="8.26209" gradientUnits="userSpaceOnUse">
      <stop stop-color="#025099"></stop>
      <stop offset="1" stop-color="#4776A2"></stop>
    </linearGradient>
  </defs>
</svg>