<svg viewBox="0 0 32 32" fill="none" xmlns="http://www.w3.org/2000/svg" xmlns:anim="http://www.w3.org/2000/anim" anim="" anim:transform-origin="50% 50%" anim:duration="0.5" anim:ease="power1.inOut">
  <g id="71b78418515e9775c4a49fecb109785c">
    <g id="173cb60c699a8cad125fbaa786e6d97c">
      <g id="db46e423e335b40363f5f1a1b7f6c24b">
        <path id="83259db5079fd952a4c4a479fc53f4de" d="M29.212 12.7437C29.0377 12.1818 28.5597 11.7826 27.9942 11.7295L20.3125 11.0022L17.275 3.5884C17.051 3.04506 16.5409 2.69336 15.9742 2.69336C15.4074 2.69336 14.8974 3.04506 14.6734 3.58967L11.6358 11.0022L3.95292 11.7295C3.38841 11.7839 2.91163 12.1818 2.73639 12.7437C2.56115 13.3057 2.72299 13.9221 3.15002 14.3106L8.95648 19.6207L7.24429 27.4855C7.119 28.0638 7.33424 28.6615 7.79437 29.0084C8.0417 29.1947 8.33106 29.2896 8.62285 29.2896C8.87444 29.2896 9.124 29.2188 9.34797 29.0791L15.9742 24.9495L22.5979 29.0791C23.0826 29.3832 23.6936 29.3554 24.1528 29.0084C24.6131 28.6605 24.8281 28.0625 24.7028 27.4855L22.9907 19.6207L28.7971 14.3117C29.2241 13.9221 29.3872 13.3068 29.212 12.7437Z" fill="#FFC107"></path>
      </g>
    </g>
  </g>
</svg>