<svg viewBox="0 0 24 24" fill="none" xmlns="http://www.w3.org/2000/svg" xmlns:anim="http://www.w3.org/2000/anim" anim="" anim:transform-origin="50% 50%" anim:duration="0.5" anim:ease="power1.inOut">
  <g id="76edbd4c817e570119885c4b9121295c">
    <g id="48908508c6e1f330794378a105ed028a">
      <path id="006e0be99723c778cc01d218297ef390" fill-rule="evenodd" clip-rule="evenodd" d="M21.6745 20.0676L15.9056 14.1894L15.7982 14.3057C18.0597 11.0749 17.4808 6.61177 14.4731 4.09057C11.4654 1.56936 7.05543 1.85053 4.37969 4.73411C1.70395 7.61769 1.67562 12.1195 4.31484 15.0378C6.95407 17.9561 11.3601 18.2949 14.3993 15.8132L14.3782 15.8359L20.1037 21.6679C20.5397 22.097 21.2327 22.0908 21.6613 21.6541C22.0899 21.2175 22.0959 20.5114 21.6748 20.0672L21.6745 20.0676ZM9.77781 15.5849C6.70956 15.5849 4.22225 13.0507 4.22225 9.92454C4.22225 6.7984 6.70956 4.26416 9.77781 4.26416C12.8461 4.26416 15.3334 6.7984 15.3334 9.92454C15.3299 13.0492 12.8446 15.5814 9.77781 15.5849Z" fill="url(#4bca4d94502703aa892af3c58a7e692f)"></path>
    </g>
  </g>
  <defs>
    <linearGradient id="4bca4d94502703aa892af3c58a7e692f" x1="21.8453" y1="2.6534" x2="2.49547" y2="2.6534" gradientUnits="userSpaceOnUse">
      <stop stop-color="#025099"></stop>
      <stop offset="1" stop-color="#4776A2"></stop>
    </linearGradient>
  </defs>
</svg>