<svg viewBox="0 0 24 24" fill="none" xmlns="http://www.w3.org/2000/svg" xmlns:anim="http://www.w3.org/2000/anim" anim="" anim:transform-origin="50% 50%" anim:duration="0.5" anim:ease="power1.inOut">
  <g id="9da50b855de742456ad588954cefd5bb">
    <path id="4cd879daa0317c10a1d90bff848ae2d3" fill-rule="evenodd" clip-rule="evenodd" d="M18.7072 5.29287C19.0982 5.68338 19.0982 6.31658 18.7072 6.70707L6.70725 18.7071C6.31725 19.0976 5.68325 19.0976 5.29325 18.7071C4.90225 18.3166 4.90225 17.6834 5.29325 17.2929L17.2933 5.29287C17.6833 4.90237 18.3172 4.90237 18.7072 5.29287Z" fill="#383838"></path>
    <path id="b045ec01675b6cf11227b499c74bd9c5" fill-rule="evenodd" clip-rule="evenodd" d="M5.29325 5.29287C5.68325 4.90237 6.31725 4.90237 6.70725 5.29287L18.7072 17.2929C19.0982 17.6834 19.0982 18.3166 18.7072 18.7071C18.3172 19.0976 17.6833 19.0976 17.2933 18.7071L5.29325 6.70707C4.90225 6.31658 4.90225 5.68338 5.29325 5.29287Z" fill="#383838"></path>
  </g>
</svg>