<svg viewBox="0 0 24 24" fill="none" xmlns="http://www.w3.org/2000/svg" xmlns:anim="http://www.w3.org/2000/anim" anim="" anim:transform-origin="50% 50%" anim:duration="0.5" anim:ease="power1.inOut">
  <g id="b606265d0ef550df0861c1d567fa90aa">
    <g id="41d1fcced074daacf4f4b8eb572f6af6">
      <path id="4cf7669672aa4de821dbe9e480050985" fill-rule="evenodd" clip-rule="evenodd" d="M21.1667 7.29744H2.83333C2.37333 7.29744 2 6.78281 2 6.14872C2 5.51462 2.37333 5 2.83333 5H21.1667C21.6267 5 22 5.51462 22 6.14872C22 6.78281 21.6267 7.29744 21.1667 7.29744ZM21.1667 13.1164H2.83333C2.37333 13.1164 2 12.6018 2 11.9677C2 11.3336 2.37333 10.819 2.83333 10.819H21.1667C21.6267 10.819 22 11.3336 22 11.9677C22 12.6018 21.6267 13.1164 21.1667 13.1164ZM2.83333 18.9354H21.1667C21.6267 18.9354 22 18.4208 22 17.7867C22 17.1526 21.6267 16.6379 21.1667 16.6379H2.83333C2.37333 16.6379 2 17.1526 2 17.7867C2 18.4208 2.37333 18.9354 2.83333 18.9354Z" fill="#1B1B1B"></path>
    </g>
  </g>
</svg>