<svg viewBox="0 0 24 24" fill="none" xmlns="http://www.w3.org/2000/svg" xmlns:anim="http://www.w3.org/2000/anim" anim="" anim:transform-origin="50% 50%" anim:duration="0.5" anim:ease="power1.inOut">
  <g id="bb007cb54e494ef239e5293a11932da8">
    <g id="15f4f6f5e8b5286563f6f230183ba3ab">
      <g id="2fbfec06273a8c8e59ddacc37fcd14f6">
        <path id="fc6089a81f0bc2cb6c2527b4daf6a383" fill-rule="evenodd" clip-rule="evenodd" d="M18.8087 12.7045C19.6794 12.7045 20.3855 13.4208 20.3855 14.3053C20.3855 14.3738 20.38 14.4407 20.3716 14.5067C20.274 15.2959 19.6122 15.9065 18.8087 15.9065C17.9831 15.9065 17.3069 15.262 17.2384 14.4417C17.2348 14.3964 17.2316 14.3514 17.2316 14.3049C17.2314 13.421 17.9374 12.7045 18.8087 12.7045ZM19.5984 13.702L19.2766 14.0288C19.3017 14.0725 19.3213 14.1192 19.3338 14.1697H19.7873C19.7637 13.9949 19.6976 13.836 19.5984 13.702ZM19.7887 14.4466H19.3322C19.3192 14.4956 19.3002 14.5428 19.2752 14.5855L19.5976 14.9127C19.697 14.7795 19.7647 14.6202 19.7887 14.4466ZM18.9449 15.3002C19.1156 15.2762 19.271 15.2083 19.4023 15.1075L19.0817 14.782C19.0396 14.807 18.9932 14.8253 18.9449 14.838V15.3002ZM18.9449 13.7728C18.9946 13.7855 19.0411 13.8058 19.0843 13.8319L19.4055 13.5055C19.2736 13.4037 19.1168 13.3363 18.9449 13.3121V13.7728ZM18.6718 13.3121C18.4996 13.3363 18.3431 13.4037 18.2112 13.5057L18.5324 13.8319C18.5756 13.8058 18.6221 13.7855 18.6718 13.7728V13.3121ZM18.6718 15.3V14.838C18.6233 14.8251 18.5772 14.8068 18.535 14.7816L18.2142 15.1075C18.3457 15.2076 18.5013 15.2757 18.6718 15.3ZM18.0184 14.9139L18.3419 14.5851C18.3168 14.5422 18.296 14.4961 18.2831 14.4464H17.8299C17.8542 14.6202 17.919 14.7806 18.0184 14.9139ZM18.2831 14.1693C18.2958 14.1192 18.3152 14.0721 18.3402 14.0284L18.0184 13.7016C17.9188 13.8355 17.8532 13.9947 17.8295 14.1689L18.2831 14.1693Z" fill="url(#a30b657b289ee097e62b2eaa85b24696)"></path>
        <path id="b6349d1e5627b188823dd7b9dfb0d4d6" fill-rule="evenodd" clip-rule="evenodd" d="M5.53432 12.7045C6.40502 12.7045 7.11108 13.4208 7.11108 14.3053C7.11108 14.3738 7.10563 14.4407 7.09714 14.5067C6.99977 15.2959 6.33775 15.9065 5.53452 15.9065C4.70886 15.9065 4.0325 15.262 3.96422 14.4417C3.96058 14.3964 3.95735 14.3514 3.95735 14.3049C3.95694 13.421 4.663 12.7045 5.53432 12.7045ZM6.32422 13.702L6.0022 14.0288C6.02725 14.0725 6.04704 14.1192 6.05937 14.1697H6.5129C6.48927 13.9949 6.42341 13.836 6.32422 13.702ZM6.51432 14.4466H6.05775C6.04482 14.4956 6.02583 14.5428 6.00078 14.5855L6.32321 14.9125C6.4224 14.7795 6.49028 14.6202 6.51432 14.4466ZM5.67048 15.3002C5.84118 15.2762 5.99654 15.2083 6.12785 15.1075L5.80725 14.782C5.76523 14.807 5.71876 14.8253 5.67048 14.838V15.3002ZM5.67048 13.7728C5.72017 13.7855 5.76664 13.8058 5.80967 13.8319L6.13108 13.5055C5.99916 13.4037 5.8422 13.3363 5.67048 13.3121V13.7728ZM5.39755 13.3121C5.22543 13.3363 5.06886 13.4037 4.93714 13.5057L5.25836 13.8319C5.30159 13.8058 5.34805 13.7855 5.39755 13.7728V13.3121ZM5.39755 15.3V14.838C5.34927 14.8251 5.303 14.8068 5.26078 14.7816L4.93997 15.1075C5.07149 15.2076 5.22664 15.2757 5.39755 15.3ZM4.74422 14.9139L5.06765 14.5851C5.0426 14.5422 5.02179 14.4961 5.00886 14.4464H4.55573C4.57997 14.6202 4.64442 14.7806 4.74422 14.9139ZM5.00846 14.1693C5.02118 14.1192 5.04058 14.0721 5.06563 14.0284L4.74381 13.7016C4.64422 13.8355 4.57856 13.9947 4.55472 14.1689L5.00846 14.1693Z" fill="url(#66c5fb1e6544f52918cd4ee41a983bdf)"></path>
        <path id="21ccfbb22489cb4e1cc130ecfa4bd98d" fill-rule="evenodd" clip-rule="evenodd" d="M2.17673 12.1951L2.47976 11.9011L2.47915 10.9737C2.47895 10.7303 2.56763 10.4956 2.72824 10.3151L3.84844 9.05539V9.05478C3.8539 8.79303 4.03895 8.5719 4.29228 8.5237C5.6242 8.26954 9.75673 7.61252 13.0276 8.50483C15.0484 9.05601 17.103 10.1655 17.103 10.1655C17.103 10.1655 20.6707 10.6271 21.5256 11.7586C21.8234 12.1524 21.9482 12.6698 21.9935 13.1358C22.0567 13.7871 21.6349 14.3817 21.0064 14.5255L20.6765 14.601C20.6794 14.5828 20.6836 14.5649 20.6858 14.5461C20.6967 14.4607 20.7022 14.3811 20.7022 14.3046C20.7022 13.2443 19.8525 12.3817 18.8082 12.3817C17.7638 12.3817 16.9141 13.2443 16.9141 14.3046C16.9141 14.3602 16.9177 14.414 16.9222 14.4683C16.9276 14.5337 16.9367 14.5982 16.9486 14.6613L7.38844 14.681C7.39713 14.6363 7.40582 14.5918 7.41147 14.5461C7.42238 14.4607 7.42784 14.3811 7.42784 14.3046C7.42784 13.2443 6.57814 12.3817 5.5339 12.3817C4.48945 12.3817 3.63976 13.2443 3.63976 14.3046C3.63976 14.3602 3.64339 14.414 3.64784 14.4683C3.6539 14.5432 3.66602 14.6166 3.68056 14.6886L3.55006 14.6888L3.00622 14.3863C2.43895 14.071 2.07652 13.4759 2.05208 12.8199L2.04117 12.5329C2.03673 12.4062 2.08582 12.2835 2.17673 12.1951ZM15.2236 10.296L15.0773 9.70257C15.0773 9.70257 12.863 8.52637 9.15693 8.65437V10.408L15.0925 10.8835C15.0925 10.8835 15.0606 10.5073 15.2236 10.296ZM5.71289 10.1323L8.5038 10.3559V8.69129C7.58602 8.75898 6.58865 8.90606 5.51814 9.16862C5.40986 9.19508 5.32299 9.27672 5.28844 9.38421C5.2537 9.4917 5.27632 9.60985 5.34844 9.69601L5.71289 10.1323Z" fill="url(#5fdd7806acc77408010a0cb32bf7825b)"></path>
      </g>
    </g>
  </g>
  <defs>
    <linearGradient id="a30b657b289ee097e62b2eaa85b24696" x1="17.2543" y1="12.7506" x2="20.3628" y2="12.7506" gradientUnits="userSpaceOnUse">
      <stop stop-color="#025099"></stop>
      <stop offset="1" stop-color="#4776A2"></stop>
    </linearGradient>
    <linearGradient id="66c5fb1e6544f52918cd4ee41a983bdf" x1="3.98007" y1="12.7506" x2="7.08836" y2="12.7506" gradientUnits="userSpaceOnUse">
      <stop stop-color="#025099"></stop>
      <stop offset="1" stop-color="#4776A2"></stop>
    </linearGradient>
    <linearGradient id="5fdd7806acc77408010a0cb32bf7825b" x1="2.18471" y1="8.14728" x2="21.8559" y2="8.14728" gradientUnits="userSpaceOnUse">
      <stop stop-color="#025099"></stop>
      <stop offset="1" stop-color="#4776A2"></stop>
    </linearGradient>
  </defs>
</svg>