<svg viewBox="0 0 24 24" fill="none" xmlns="http://www.w3.org/2000/svg" xmlns:anim="http://www.w3.org/2000/anim" anim="" anim:transform-origin="50% 50%" anim:duration="0.5" anim:ease="power1.inOut">
  <g id="d8c3f6c852db8f2af523411128769184">
    <g id="e38134b8f4131e0c0d20548ba4d30137">
      <path id="3e1806071122ac2637c01c29e847f79b" fill-rule="evenodd" clip-rule="evenodd" d="M12 14C13.1046 14 14 13.1046 14 12C14 10.8954 13.1046 10 12 10C10.8954 10 10 10.8954 10 12C10 13.1046 10.8954 14 12 14Z" fill="#004E98"></path>
      <path id="db5504aad2724bf84ea8d388fe22b4b3" fill-rule="evenodd" clip-rule="evenodd" d="M12 20C13.1046 20 14 19.1046 14 18C14 16.8954 13.1046 16 12 16C10.8954 16 10 16.8954 10 18C10 19.1046 10.8954 20 12 20Z" fill="#004E98"></path>
      <path id="b119bafac621f35073c4f8fadb7f4575" fill-rule="evenodd" clip-rule="evenodd" d="M12 8C13.1046 8 14 7.10457 14 6C14 4.89543 13.1046 4 12 4C10.8954 4 10 4.89543 10 6C10 7.10457 10.8954 8 12 8Z" fill="#004E98"></path>
    </g>
  </g>
</svg>