<svg viewBox="0 0 24 24" fill="none" xmlns="http://www.w3.org/2000/svg" xmlns:anim="http://www.w3.org/2000/anim" anim="" anim:transform-origin="50% 50%" anim:duration="0.5" anim:ease="power1.inOut">
  <g id="2b56fa9ab2e2c0bde1b6fc7221b0081c">
    <g id="85c15eaa6273f0013bcec13dac023a69">
      <g id="70c968ed25bfa8294b7004ec3dcd05cf">
        <path id="3609176264ac249dfa44f4bd41004614" d="M11.98 11.7948C13.8665 11.7948 15.3959 9.93925 15.3959 7.65037C15.3959 5.36143 14.8937 3.50586 11.98 3.50586C9.06632 3.50586 8.56421 5.36143 8.56421 7.65037C8.56426 9.93925 10.0936 11.7948 11.98 11.7948Z" fill="white"></path>
        <path id="5fe1aeb5fc7a156625d4db5c493f3b10" d="M18.4244 17.9556C18.3612 13.9682 17.8399 12.832 13.8507 12.1128C13.8507 12.1128 13.289 12.8276 11.9802 12.8276C10.6713 12.8276 10.1098 12.1128 10.1098 12.1128C6.16409 12.8241 5.61098 13.9435 5.53828 17.826C5.53237 18.1431 5.52964 18.1597 5.52856 18.1229C5.52877 18.1919 5.52908 18.3194 5.52908 18.5418C5.52908 18.5418 6.47885 20.4544 11.9802 20.4544C17.4816 20.4544 18.4315 18.5418 18.4315 18.5418C18.4315 18.3989 18.4316 18.2995 18.4317 18.232C18.4306 18.2547 18.4284 18.2106 18.4244 17.9556Z" fill="white"></path>
        <path id="52ccb92f82711f3ad0988a2975480f6d" d="M16.7203 11.0548C18.2525 11.0548 19.4946 9.54774 19.4946 7.68873C19.4946 5.82967 19.0868 4.32263 16.7203 4.32263C16.3223 4.32263 15.9798 4.36541 15.6851 4.44528C16.2317 5.45182 16.3066 6.67438 16.3066 7.65027C16.3066 8.75521 16.0068 9.81014 15.4546 10.6836C15.8341 10.9204 16.2642 11.0548 16.7203 11.0548Z" fill="white"></path>
        <path id="1143e670f45daa363c5c7b9298e4464f" d="M21.9542 16.0585C21.9028 12.82 21.4795 11.8973 18.2395 11.3131C18.2395 11.3131 17.7834 11.8937 16.7203 11.8937C16.6764 11.8937 16.6338 11.8923 16.5918 11.8904C17.2672 12.1946 17.8817 12.6182 18.3342 13.238C19.1164 14.3095 19.2963 15.7489 19.3334 17.8636C21.5132 17.4333 21.9599 16.5347 21.9599 16.5347C21.9599 16.4176 21.9599 16.3373 21.9601 16.2824C21.9593 16.3017 21.9575 16.2671 21.9542 16.0585Z" fill="white"></path>
        <path id="0a1fc6d679c5caf29938dc0d8c44ecba" d="M7.23972 11.0549C7.69591 11.0549 8.12588 10.9204 8.50558 10.6837C7.95339 9.81026 7.65355 8.75534 7.65355 7.65039C7.65355 6.67445 7.72846 5.45189 8.27493 4.4454C7.98033 4.36554 7.63786 4.32275 7.23972 4.32275C4.87329 4.32275 4.46558 5.8298 4.46558 7.68886C4.46558 9.54781 5.70763 11.0549 7.23972 11.0549Z" fill="white"></path>
        <path id="e2e962ee892b90b2a1810fcd051a6eb7" d="M7.36823 11.8903C7.32638 11.8922 7.28375 11.8936 7.23969 11.8936C6.17666 11.8936 5.72057 11.313 5.72057 11.313C2.48067 11.8972 2.05722 12.8199 2.00591 16.0584C2.00257 16.267 2.00087 16.3016 2 16.2822C2.0001 16.3371 2.00021 16.4175 2.00021 16.5346C2.00021 16.5346 2.44699 17.4331 4.62663 17.8634C4.66391 15.7488 4.84365 14.3094 5.62602 13.2378C6.07846 12.6181 6.6928 12.1945 7.36823 11.8903Z" fill="white"></path>
      </g>
    </g>
  </g>
</svg>