<svg viewBox="0 0 24 24" fill="none" xmlns="http://www.w3.org/2000/svg" xmlns:anim="http://www.w3.org/2000/anim" anim="" anim:transform-origin="50% 50%" anim:duration="0.5" anim:ease="power1.inOut">
  <g id="d8ccb923f28d83afa8bb4b54be198a87">
    <g id="e87d8acd74c1f6acd8518921633fd929">
      <path id="d4d19898d0a40dc85969272f7c5746b3" fill-rule="evenodd" clip-rule="evenodd" d="M19.0898 5.7313L20.4925 10.2732C21.3782 10.6471 22 11.5034 22 12.5V17.3571C22 18.0277 21.4403 18.5714 20.75 18.5714V19.7857C20.75 20.4563 20.1904 21 19.5 21H18.2499C17.5595 21 16.9999 20.4563 16.9999 19.7856L17 18.5714H6.99954L7.00007 19.7857C7.00007 20.4563 6.44038 21 5.75007 21H4.5C3.80962 21 3.25 20.4563 3.25 19.7856L3.25008 18.5714H3.25C2.55969 18.5714 2 18.0277 2 17.3571V12.5C2 11.5034 2.62179 10.6471 3.50749 10.2732L4.91015 5.7313C5.22997 4.69549 6.1925 4 7.30517 4H16.6948C17.8075 4 18.77 4.69549 19.0898 5.7313ZM16.6948 6.42857H7.30514L6.1801 10.0714H17.8198L16.6948 6.42857ZM6.99996 15.5357C6.30958 15.5357 5.74996 14.992 5.74996 14.3214C5.74996 13.6508 6.30958 13.1071 6.99996 13.1071C7.69034 13.1071 8.24996 13.6508 8.24996 14.3214C8.24996 14.992 7.69034 15.5357 6.99996 15.5357ZM15.75 14.3214C15.75 14.992 16.3096 15.5357 17 15.5357C17.6903 15.5357 18.25 14.992 18.25 14.3214C18.25 13.6508 17.6903 13.1071 17 13.1071C16.3096 13.1071 15.75 13.6508 15.75 14.3214Z" fill="white"></path>
    </g>
  </g>
</svg>