<svg viewBox="0 0 24 24" fill="none" xmlns="http://www.w3.org/2000/svg" xmlns:anim="http://www.w3.org/2000/anim" anim="" anim:transform-origin="50% 50%" anim:duration="0.5" anim:ease="power1.inOut">
  <g id="1e26f3c852ab0a07298b7214b6e82172">
    <g id="46be0e55e587dd78c0cd2b5f9835efb0">
      <g id="5d01c562751c9448f6d99649ed7a9834">
        <path id="0000b500b131c6b0b54f99a8a1e79272" fill-rule="evenodd" clip-rule="evenodd" d="M18.5262 2H6.02616C5.10737 2 4.35948 2.74746 4.35948 3.66668V5.33336H3.9428C3.71249 5.33336 3.52612 5.51973 3.52612 5.75004C3.52612 5.98035 3.71249 6.16672 3.9428 6.16672H5.60948C5.83897 6.16672 6.02616 6.35348 6.02616 6.5834C6.02616 6.81328 5.83897 7.00008 5.60948 7.00008H4.77616C4.54585 7 4.35948 7.18637 4.35948 7.41668V9.5H3.9428C3.71249 9.5 3.52612 9.68637 3.52612 9.91668C3.52612 10.147 3.71249 10.3334 3.9428 10.3334H5.60948C5.83897 10.3334 6.02616 10.5201 6.02616 10.75C6.02616 10.98 5.83897 11.1667 5.60948 11.1667H4.77616C4.54585 11.1667 4.35948 11.353 4.35948 11.5834V13.6667H3.9428C3.71249 13.6667 3.52612 13.853 3.52612 14.0834C3.52612 14.3137 3.71249 14.5 3.9428 14.5H5.60948C5.83897 14.5 6.02616 14.6868 6.02616 14.9167C6.02616 15.1466 5.83897 15.3334 5.60948 15.3334H4.77616C4.54585 15.3333 4.35948 15.5197 4.35948 15.75V17.8333H3.9428C3.71249 17.8333 3.52612 18.0197 3.52612 18.25C3.52612 18.4803 3.71249 18.6667 3.9428 18.6667H5.60948C5.83897 18.6667 6.02616 18.8534 6.02616 19.0834C6.02616 19.3132 5.83897 19.5 5.60948 19.5H4.77616C4.54585 19.5 4.35948 19.6864 4.35948 19.9167V20.3334C4.35948 21.2525 5.10737 22 6.02616 22H18.5262C19.445 22 20.1928 21.2525 20.1928 20.3333V3.66668C20.1928 2.74746 19.445 2 18.5262 2ZM17.6928 15.2405C17.6928 15.7512 17.2769 16.1666 16.7667 16.1666C11.7635 16.1666 7.6928 12.096 7.6928 7.09273C7.6928 6.58207 8.10866 6.16664 8.6189 6.16664H10.4011C10.9114 6.16664 11.3272 6.58207 11.3272 7.09273C11.3272 7.67137 11.4176 8.23898 11.5958 8.78055C11.7024 9.11828 11.6145 9.47797 11.3679 9.72457L10.6379 10.6966C11.2654 11.8494 12.001 12.5851 13.1623 13.2207L14.178 12.4537C14.383 12.2441 14.7533 12.1562 15.0845 12.2702C15.62 12.4468 16.188 12.5375 16.7667 12.5375C17.2769 12.5375 17.6928 12.9529 17.6928 13.4636V15.2405H17.6928Z" fill="url(#7de312997db3b6fe1cd6346cd65c0f72)"></path>
      </g>
    </g>
  </g>
  <defs>
    <linearGradient id="7de312997db3b6fe1cd6346cd65c0f72" x1="20.0728" y1="2.28822" x2="3.64621" y2="2.28822" gradientUnits="userSpaceOnUse">
      <stop stop-color="#025099"></stop>
      <stop offset="1" stop-color="#4776A2"></stop>
    </linearGradient>
  </defs>
</svg>