<svg viewBox="0 0 20 19" fill="none" xmlns="http://www.w3.org/2000/svg" xmlns:anim="http://www.w3.org/2000/anim" anim="" anim:transform-origin="50% 50%" anim:duration="0.5" anim:ease="power1.inOut">
  <g id="a2f58dcdd2f4f83eb2a5a4602d14ef69" clip-path="url(#clip0_28_6281)">
    <path id="65dcfb82a7c46581736395c0e03f4149" d="M12.5001 1.58337V9.50004C12.5001 10.3709 11.7501 11.0834 10.8334 11.0834H1.66675V4.75004C1.66675 3.00046 3.15841 1.58337 5.00008 1.58337H12.5001Z" fill="#10589C" stroke="#4D80AE" stroke-width="1.5" stroke-linecap="round" stroke-linejoin="round"></path>
    <path id="251ea2069da65c013059c1169b417d99" d="M18.3334 11.0834V13.4584C18.3334 14.7725 17.2167 15.8334 15.8334 15.8334H15.0001C15.0001 14.9625 14.2501 14.25 13.3334 14.25C12.4167 14.25 11.6667 14.9625 11.6667 15.8334H8.33341C8.33341 14.9625 7.58341 14.25 6.66675 14.25C5.75008 14.25 5.00008 14.9625 5.00008 15.8334H4.16675C2.78341 15.8334 1.66675 14.7725 1.66675 13.4584V11.0834H10.8334C11.7501 11.0834 12.5001 10.3709 12.5001 9.50004V3.95837H14.0334C14.6334 3.95837 15.1834 4.26712 15.4834 4.75796L16.9084 7.12504H15.8334C15.3751 7.12504 15.0001 7.48129 15.0001 7.91671V10.2917C15.0001 10.7271 15.3751 11.0834 15.8334 11.0834H18.3334Z" stroke="#4D80AE" stroke-width="1.5" stroke-linecap="round" stroke-linejoin="round"></path>
    <path id="2e8af63339864536f2a06774220b7cf3" d="M6.66667 17.4167C7.10869 17.4167 7.53262 17.2499 7.84518 16.9529C8.15774 16.656 8.33333 16.2533 8.33333 15.8333C8.33333 15.4134 8.15774 15.0107 7.84518 14.7137C7.53262 14.4168 7.10869 14.25 6.66667 14.25C6.22464 14.25 5.80072 14.4168 5.48816 14.7137C5.17559 15.0107 5 15.4134 5 15.8333C5 16.2533 5.17559 16.656 5.48816 16.9529C5.80072 17.2499 6.22464 17.4167 6.66667 17.4167V17.4167ZM13.3333 17.4167C13.7754 17.4167 14.1993 17.2499 14.5118 16.9529C14.8244 16.656 15 16.2533 15 15.8333C15 15.4134 14.8244 15.0107 14.5118 14.7137C14.1993 14.4168 13.7754 14.25 13.3333 14.25C12.8913 14.25 12.4674 14.4168 12.1548 14.7137C11.8423 15.0107 11.6667 15.4134 11.6667 15.8333C11.6667 16.2533 11.8423 16.656 12.1548 16.9529C12.4674 17.2499 12.8913 17.4167 13.3333 17.4167ZM18.3333 9.5V11.0833H15.8333C15.375 11.0833 15 10.7271 15 10.2917V7.91667C15 7.48125 15.375 7.125 15.8333 7.125H16.9083L18.3333 9.5Z" stroke="#4D80AE" stroke-width="1.5" stroke-linecap="round" stroke-linejoin="round"></path>
  </g>
  <defs>
    <clipPath id="clip0_28_6281">
      <rect width="20" height="19" fill="white"></rect>
    </clipPath>
  </defs>
</svg>