<svg viewBox="0 0 24 24" fill="none" xmlns="http://www.w3.org/2000/svg" xmlns:anim="http://www.w3.org/2000/anim" anim="" anim:transform-origin="50% 50%" anim:duration="0.5" anim:ease="power1.inOut">
  <g id="562943b1c41b4905b42b7404f77317f9">
    <g id="2a23217048a8496d5570d90b5c06a6ce">
      <g id="ade91153e844e017b794f6715db8b41b">
        <path id="b40c4c75ead98f03dbb06064bc2692e8" fill-rule="evenodd" clip-rule="evenodd" d="M19.4146 16.3905C18.9073 15.6152 18.2129 14.5536 18.2129 11.5319V10.1702C18.2129 7.29736 16.34 4.86681 13.78 4.08328V3.81562C13.78 2.81426 12.9843 2 12.0069 2C11.0294 2 10.2337 2.81426 10.2337 3.81562V4.08328C7.67372 4.86681 5.80076 7.29736 5.80076 10.1702V11.5319C5.80076 14.5536 5.1064 15.6152 4.59902 16.3905C4.30549 16.8395 4.02759 17.2637 4.02759 17.8865C4.02759 19.3663 7.04037 19.8856 9.48301 20.0644C9.82549 21.1871 10.8308 21.9716 12.0068 21.9716C13.1828 21.9716 14.1881 21.1871 14.5306 20.0644C16.9732 19.8856 19.986 19.3663 19.986 17.8865C19.9861 17.2637 19.7081 16.8395 19.4146 16.3905ZM12.8934 3.88813C12.603 3.84532 12.3086 3.81562 12.0069 3.81562C11.7051 3.81562 11.4107 3.84532 11.1203 3.88813V3.81562C11.1203 3.31519 11.5177 2.90783 12.0069 2.90783C12.496 2.90783 12.8934 3.31515 12.8934 3.81562V3.88813Z" fill="url(#9f7f15bdbb237d9b6c3dc77730739c54)"></path>
      </g>
    </g>
  </g>
  <defs>
    <linearGradient id="9f7f15bdbb237d9b6c3dc77730739c54" x1="19.871" y1="2.28781" x2="4.14257" y2="2.28781" gradientUnits="userSpaceOnUse">
      <stop stop-color="#025099"></stop>
      <stop offset="1" stop-color="#4776A2"></stop>
    </linearGradient>
  </defs>
</svg>