<svg viewBox="0 0 24 24" fill="none" xmlns="http://www.w3.org/2000/svg" xmlns:anim="http://www.w3.org/2000/anim" anim="" anim:transform-origin="50% 50%" anim:duration="0.5" anim:ease="power1.inOut">
  <g id="2d915440655649cbd51168da38cc2116">
    <g id="3e9dfa06e6dd91963e6bd62d15a194b8">
      <path id="f17ff34dedacbf521730efe4858fe5b9" fill-rule="evenodd" clip-rule="evenodd" d="M6.41274 8.51184C3.70884 8.51184 1.50903 10.7116 1.50903 13.4156C1.50903 15.0943 2.30763 16.8993 3.88267 18.7804C5.04228 20.1654 6.18513 21.0554 6.23325 21.0926C6.28606 21.1335 6.34942 21.1539 6.41274 21.1539C6.47606 21.1539 6.53938 21.1335 6.59224 21.0926C6.64032 21.0554 7.78325 20.1654 8.94282 18.7804C10.5179 16.8993 11.3165 15.0943 11.3165 13.4156C11.3165 10.7116 9.11665 8.51184 6.41274 8.51184ZM8.25161 13.4156C8.25161 14.4311 7.42833 15.2544 6.41274 15.2544C5.3972 15.2544 4.57392 14.4311 4.57392 13.4156C4.57392 12.4 5.3972 11.5767 6.41274 11.5767C7.42833 11.5767 8.25161 12.4 8.25161 13.4156Z" fill="url(#be8ad07a62e5fb4b20718daefda803c5)"></path>
      <path id="213bf3e3c18f712ff56092ffefcbb9cc" fill-rule="evenodd" clip-rule="evenodd" d="M17.6541 2.5C15.5385 2.5 13.8174 4.22117 13.8174 6.33672C13.8174 7.64336 14.4365 9.04527 15.6575 10.5036C16.5534 11.5736 17.4375 12.262 17.4746 12.2908C17.5275 12.3317 17.5908 12.3521 17.6541 12.3521C17.7175 12.3521 17.7807 12.3317 17.8336 12.2908C17.8708 12.262 18.7549 11.5736 19.6507 10.5036C20.8718 9.04531 21.4909 7.6434 21.4909 6.33672C21.4908 4.22117 19.7696 2.5 17.6541 2.5ZM19.0674 6.33672C19.0674 7.11727 18.4346 7.75004 17.6541 7.75004C16.8736 7.75004 16.2408 7.11727 16.2408 6.33672C16.2408 5.55617 16.8736 4.92344 17.6541 4.92344C18.4346 4.92344 19.0674 5.55617 19.0674 6.33672Z" fill="url(#4f40155d4cb174bad26d86757343603f)"></path>
      <g id="d7ec0687dcf926fa6b09e6345fc45532">
        <path id="af5e793131a97b0c91d4b9b6192abb82" fill-rule="evenodd" clip-rule="evenodd" d="M6.41273 8.51184C6.22598 8.51184 6.04176 8.5227 5.86039 8.54313C8.3052 8.81844 10.2117 10.8984 10.2117 13.4156C10.2117 15.0943 9.41313 16.8993 7.83809 18.7804C7.06457 19.7043 6.29902 20.4073 5.86035 20.7845C6.07934 20.9728 6.21723 21.0802 6.23324 21.0926C6.28605 21.1335 6.34941 21.1539 6.41273 21.1539C6.47605 21.1539 6.53938 21.1335 6.59223 21.0926C6.64031 21.0554 7.78324 20.1654 8.94281 18.7804C10.5179 16.8993 11.3164 15.0943 11.3164 13.4155C11.3164 10.7116 9.11664 8.51184 6.41273 8.51184Z" fill="url(#7599a9750697857e4d3fb5951904cf81)"></path>
        <path id="800cd9f68d4cf655ece865fd559dac2e" fill-rule="evenodd" clip-rule="evenodd" d="M17.6542 2.5C17.4667 2.5 17.2822 2.51375 17.1018 2.53992C18.9565 2.80852 20.3862 4.40871 20.3862 6.33672C20.3862 7.64336 19.767 9.04527 18.5461 10.5036C17.9954 11.1613 17.4497 11.6744 17.1018 11.9792C17.3199 12.1703 17.4604 12.2797 17.4747 12.2908C17.5275 12.3317 17.5909 12.3521 17.6542 12.3521C17.7175 12.3521 17.7808 12.3317 17.8337 12.2908C17.8709 12.262 18.7549 11.5736 19.6508 10.5036C20.8718 9.04527 21.4909 7.64336 21.4909 6.33668C21.4909 4.22117 19.7697 2.5 17.6542 2.5Z" fill="url(#f6d419073c98c8776cd14d78e5ee2372)"></path>
      </g>
      <path id="d3c49970fb1a2711958e0e168bbec0f1" fill-rule="evenodd" clip-rule="evenodd" d="M10.9619 21.2072C10.8006 21.2072 10.6694 21.0768 10.6687 20.9152C10.668 20.7533 10.7987 20.6213 10.9607 20.6206L11.348 20.6189C11.3485 20.6189 11.3489 20.6189 11.3494 20.6189C11.5107 20.6189 11.6419 20.7493 11.6426 20.9108C11.6434 21.0728 11.5127 21.2047 11.3507 21.2054L10.9633 21.2072C10.9628 21.2072 10.9624 21.2072 10.9619 21.2072ZM12.5114 21.2002C12.35 21.2002 12.2189 21.0698 12.2181 20.9082C12.2174 20.7462 12.3481 20.6143 12.5101 20.6136L12.8974 20.6118C12.8979 20.6118 12.8983 20.6118 12.8988 20.6118C13.0601 20.6118 13.1913 20.7422 13.192 20.9038C13.1928 21.0658 13.0621 21.1977 12.9001 21.1984L12.5127 21.2002C12.5123 21.2002 12.5118 21.2002 12.5114 21.2002ZM14.0608 21.1931C13.8995 21.1931 13.7683 21.0627 13.7676 20.9011C13.7668 20.7392 13.8975 20.6072 14.0595 20.6065L14.4468 20.6048C14.4473 20.6048 14.4477 20.6048 14.4482 20.6048C14.6095 20.6048 14.7407 20.7352 14.7414 20.8967C14.7421 21.0587 14.6115 21.1906 14.4495 21.1913L14.0622 21.1931C14.0617 21.1931 14.0612 21.1931 14.0608 21.1931ZM15.6103 21.1861C15.4489 21.1861 15.3178 21.0557 15.317 20.8941C15.3163 20.7322 15.447 20.6002 15.609 20.5995L15.9963 20.5977C15.9968 20.5977 15.9972 20.5977 15.9977 20.5977C16.159 20.5977 16.2902 20.7281 16.2909 20.8897C16.2916 21.0517 16.161 21.1836 15.999 21.1843L15.6116 21.1861C15.6112 21.1861 15.6107 21.1861 15.6103 21.1861ZM17.1597 21.1791C16.9984 21.1791 16.8672 21.0487 16.8664 20.8871C16.8657 20.7251 16.9964 20.5932 17.1584 20.5925L17.5457 20.5908C17.5462 20.5908 17.5466 20.5908 17.5471 20.5908C17.7084 20.5908 17.8396 20.7211 17.8403 20.8827C17.8411 21.0447 17.7104 21.1766 17.5484 21.1773L17.1611 21.1791C17.1606 21.1791 17.1602 21.1791 17.1597 21.1791ZM18.7091 21.172C18.5478 21.172 18.4167 21.0417 18.4159 20.8802C18.4151 20.7182 18.5457 20.5863 18.7078 20.5855L18.7627 20.5852C18.8608 20.5848 18.9591 20.5778 19.0552 20.5645C19.2153 20.5422 19.3636 20.6545 19.3858 20.8149C19.408 20.9754 19.2959 21.1234 19.1354 21.1456C19.0137 21.1624 18.8892 21.1712 18.7653 21.1718L18.7106 21.172C18.7101 21.172 18.7096 21.172 18.7091 21.172ZM20.1682 20.7302C20.0752 20.7302 19.9838 20.6861 19.9269 20.604C19.8346 20.4709 19.8677 20.2882 20.0008 20.1958C20.0943 20.1311 20.1833 20.0585 20.2656 19.9801C20.3828 19.8683 20.5684 19.8728 20.6802 19.9901C20.792 20.1073 20.7875 20.293 20.6702 20.4047C20.5661 20.504 20.4533 20.5959 20.3351 20.6779C20.284 20.7133 20.2258 20.7302 20.1682 20.7302ZM21.0957 19.5208C21.063 19.5208 21.0297 19.5153 20.9971 19.5037C20.8446 19.4493 20.765 19.2815 20.8194 19.129C20.8575 19.0222 20.8874 18.9114 20.9084 18.7998C20.9384 18.6406 21.0919 18.5359 21.2509 18.5659C21.41 18.5958 21.5148 18.7492 21.4848 18.9083C21.4581 19.0499 21.4202 19.1905 21.3718 19.326C21.3291 19.446 21.2161 19.5208 21.0957 19.5208ZM21.1431 17.9974C21.0157 17.9974 20.8983 17.9136 20.8614 17.7849C20.8301 17.6759 20.7899 17.5684 20.7418 17.4655C20.6734 17.3187 20.7368 17.1442 20.8836 17.0757C21.0305 17.0073 21.2049 17.0707 21.2734 17.2175C21.3344 17.3482 21.3854 17.4846 21.4252 17.6231C21.4698 17.7788 21.3799 17.9412 21.2242 17.9859C21.1971 17.9937 21.1699 17.9974 21.1431 17.9974ZM20.2925 16.7322C20.2289 16.7322 20.1648 16.7116 20.111 16.6691C20.0218 16.5986 19.9264 16.5347 19.8275 16.479C19.6864 16.3996 19.6364 16.2207 19.7159 16.0796C19.7954 15.9384 19.9744 15.8884 20.1154 15.968C20.2406 16.0385 20.3614 16.1195 20.4744 16.2087C20.6016 16.309 20.6233 16.4935 20.5229 16.6206C20.465 16.694 20.3792 16.7322 20.2925 16.7322ZM18.8649 16.2006C18.8605 16.2006 18.8561 16.2006 18.8517 16.2003C18.8189 16.1989 18.7859 16.1981 18.7528 16.1981H18.4773C18.3153 16.1981 18.1841 16.0669 18.1841 15.9049C18.1841 15.7429 18.3153 15.6116 18.4773 15.6116H18.7528C18.7941 15.6116 18.8361 15.6125 18.8776 15.6143C19.0394 15.6215 19.1648 15.7585 19.1576 15.9203C19.1507 16.0777 19.0209 16.2006 18.8649 16.2006ZM17.3153 16.1982H16.9279C16.7659 16.1982 16.6346 16.0669 16.6346 15.9049C16.6346 15.7429 16.7659 15.6116 16.9279 15.6116H17.3153C17.4773 15.6116 17.6086 15.7429 17.6086 15.9049C17.6086 16.0669 17.4773 16.1982 17.3153 16.1982ZM15.7658 16.1982H15.3785C15.2165 16.1982 15.0852 16.0669 15.0852 15.9049C15.0852 15.7429 15.2165 15.6116 15.3785 15.6116H15.7658C15.9278 15.6116 16.0591 15.7429 16.0591 15.9049C16.0591 16.0669 15.9278 16.1982 15.7658 16.1982ZM14.2163 16.1982H13.829C13.667 16.1982 13.5357 16.0669 13.5357 15.9049C13.5357 15.7429 13.667 15.6116 13.829 15.6116H14.2163C14.3783 15.6116 14.5096 15.7429 14.5096 15.9049C14.5096 16.0669 14.3784 16.1982 14.2163 16.1982ZM12.7222 15.9065C12.6687 15.9065 12.6146 15.8918 12.5661 15.8612C12.4403 15.7819 12.3222 15.6893 12.2148 15.5861C12.0981 15.4739 12.0945 15.2882 12.2068 15.1715C12.319 15.0549 12.5047 15.0511 12.6214 15.1634C12.7002 15.2391 12.7868 15.307 12.879 15.3651C13.016 15.4515 13.057 15.6327 12.9706 15.7697C12.9148 15.858 12.8195 15.9065 12.7222 15.9065ZM11.8698 14.664C11.7323 14.664 11.6096 14.5668 11.5823 14.4268C11.5554 14.2889 11.5418 14.1472 11.5418 14.0055L11.5419 13.9824C11.5437 13.8216 11.6747 13.6925 11.8351 13.6925C11.8362 13.6925 11.8374 13.6925 11.8386 13.6925C12.0005 13.6944 12.1303 13.8272 12.1284 13.9892L12.1283 14.0055C12.1283 14.1095 12.1383 14.2136 12.158 14.3146C12.189 14.4736 12.0852 14.6276 11.9262 14.6586C11.9073 14.6623 11.8884 14.664 11.8698 14.664ZM12.1903 13.1921C12.1311 13.1921 12.0713 13.1742 12.0195 13.137C11.8879 13.0425 11.8579 12.8593 11.9523 12.7277C12.0391 12.6069 12.1386 12.4945 12.2479 12.3937C12.3671 12.2839 12.5525 12.2914 12.6623 12.4104C12.7722 12.5295 12.7647 12.715 12.6456 12.8248C12.5654 12.8988 12.4925 12.9813 12.4288 13.0699C12.3715 13.1497 12.2816 13.1921 12.1903 13.1921ZM13.4814 12.416C13.3367 12.416 13.2107 12.3088 13.1911 12.1614C13.1697 12.0008 13.2826 11.8533 13.4431 11.832C13.539 11.8192 13.6369 11.8127 13.7344 11.8127H13.8684C14.0303 11.8127 14.1616 11.944 14.1616 12.106C14.1616 12.268 14.0303 12.3993 13.8684 12.3993H13.7344C13.6627 12.3993 13.5907 12.404 13.5205 12.4134C13.5073 12.4152 13.4943 12.416 13.4814 12.416Z" fill="#004E98"></path>
    </g>
  </g>
  <defs>
    <linearGradient id="be8ad07a62e5fb4b20718daefda803c5" x1="11.2458" y1="8.69403" x2="1.5797" y2="8.69403" gradientUnits="userSpaceOnUse">
      <stop stop-color="#025099"></stop>
      <stop offset="1" stop-color="#4776A2"></stop>
    </linearGradient>
    <linearGradient id="4f40155d4cb174bad26d86757343603f" x1="21.4356" y1="2.64198" x2="13.8727" y2="2.64198" gradientUnits="userSpaceOnUse">
      <stop stop-color="#025099"></stop>
      <stop offset="1" stop-color="#4776A2"></stop>
    </linearGradient>
    <linearGradient id="7599a9750697857e4d3fb5951904cf81" x1="11.2771" y1="8.69402" x2="5.89966" y2="8.69402" gradientUnits="userSpaceOnUse">
      <stop stop-color="#025099"></stop>
      <stop offset="1" stop-color="#4776A2"></stop>
    </linearGradient>
    <linearGradient id="f6d419073c98c8776cd14d78e5ee2372" x1="21.4593" y1="2.64198" x2="17.1334" y2="2.64198" gradientUnits="userSpaceOnUse">
      <stop stop-color="#025099"></stop>
      <stop offset="1" stop-color="#4776A2"></stop>
    </linearGradient>
  </defs>
</svg>