<svg viewBox="0 0 24 24" fill="none" xmlns="http://www.w3.org/2000/svg" xmlns:anim="http://www.w3.org/2000/anim" anim="" anim:transform-origin="50% 50%" anim:duration="0.5" anim:ease="power1.inOut">
  <g id="702312cc2b6c58346922b0f24250752e">
    <g id="0075c54adc1c3632379b21e8ba7f88d2">
      <path id="8b97968b889c263ad2629aeb1f574d4c" d="M21.9478 9.55776C21.8169 9.13517 21.4577 8.83502 21.0327 8.79506L15.2602 8.24811L12.9776 2.67306C12.8093 2.26448 12.426 2 12.0001 2C11.5742 2 11.1909 2.26448 11.0226 2.67401L8.73996 8.24811L2.96651 8.79506C2.54231 8.83598 2.18402 9.13517 2.05234 9.55776C1.92065 9.98035 2.04227 10.4439 2.36317 10.736L6.72652 14.7292L5.43987 20.6434C5.34572 21.0782 5.50747 21.5277 5.85324 21.7885C6.03909 21.9287 6.25654 22 6.47581 22C6.66487 22 6.85241 21.9468 7.02072 21.8417L12.0001 18.7363L16.9776 21.8417C17.3419 22.0704 17.801 22.0495 18.146 21.7885C18.4919 21.5269 18.6535 21.0773 18.5594 20.6434L17.2727 14.7292L21.6361 10.7368C21.957 10.4439 22.0795 9.98115 21.9478 9.55776Z" fill="#FFB461"></path>
    </g>
  </g>
</svg>