<svg viewBox="0 0 24 24" fill="none" xmlns="http://www.w3.org/2000/svg" xmlns:anim="http://www.w3.org/2000/anim" anim="" anim:transform-origin="50% 50%" anim:duration="0.5" anim:ease="power1.inOut">
  <g id="a6068403695bd558a71a7c55bd87a9a1">
    <g id="8dcd32253c1c23959cc1370cfbdec763">
      <path id="183eca3941e65b55309b56e604d16e47" fill-rule="evenodd" clip-rule="evenodd" d="M4.5 9.82609C4.5 4.95652 8.33333 2 12 2C15.6667 2 19.5 4.95652 19.5 9.82609C19.5 14.4348 12.8333 21.4783 12.5833 21.7391C12.4167 21.913 12.25 22 12 22C11.75 22 11.5833 21.913 11.4167 21.7391C11.1667 21.4783 4.5 14.4348 4.5 9.82609ZM9.5 9.82609C9.5 11.3043 10.5833 12.4348 12 12.4348C13.4167 12.4348 14.5 11.3043 14.5 9.82609C14.5 8.34783 13.4167 7.21739 12 7.21739C10.5833 7.21739 9.5 8.34783 9.5 9.82609Z" fill="white"></path>
    </g>
  </g>
</svg>