<svg viewBox="0 0 18 18" fill="none" xmlns="http://www.w3.org/2000/svg" xmlns:anim="http://www.w3.org/2000/anim" anim="" anim:transform-origin="50% 50%" anim:duration="0.5" anim:ease="power1.inOut">
  <g id="9383107f495660410a2f7ee2c39704e3">
    <g id="9ba2103073bfcd45b29339a21b8263a7">
      <g id="a79b8130b50a0ddb2b26d771b96105e6">
        <path id="87a62426c5022cb90278700088c6ae35" fill-rule="evenodd" clip-rule="evenodd" d="M9 1.5C4.85813 1.5 1.5 4.85813 1.5 9C1.5 13.1419 4.85813 16.5 9 16.5C13.1419 16.5 16.5 13.1419 16.5 9C16.5 4.85813 13.1419 1.5 9 1.5ZM9 3.375C11.4408 3.375 13.5023 4.94719 14.2809 7.125H3.71906C4.49766 4.94719 6.55922 3.375 9 3.375ZM8.0625 9C8.0625 9.51797 8.48203 9.9375 9 9.9375C9.51797 9.9375 9.9375 9.51797 9.9375 9C9.9375 8.48203 9.51797 8.0625 9 8.0625C8.48203 8.0625 8.0625 8.48203 8.0625 9ZM3.375 9C5.93672 9 8.01141 11.4684 8.055 14.5298C5.40375 14.0756 3.375 11.7778 3.375 9ZM9.945 14.5298C9.98859 11.4684 12.0633 9 14.625 9C14.625 11.7778 12.5962 14.0756 9.945 14.5298Z" fill="#383838"></path>
      </g>
    </g>
  </g>
</svg>