<svg viewBox="0 0 24 24" fill="none" xmlns="http://www.w3.org/2000/svg" xmlns:anim="http://www.w3.org/2000/anim" anim="" anim:transform-origin="50% 50%" anim:duration="0.5" anim:ease="power1.inOut">
  <g id="0bf3992bcb90a8c53d69524746728354">
    <g id="a782cc30e889c753e93e69e68b3e4da8">
      <path id="31ac46de7aa1c0dad48a7d94bef47078" fill-rule="evenodd" clip-rule="evenodd" d="M12 8.36361C9.9909 8.36361 8.36366 9.9909 8.36366 12C8.36366 14.009 9.9909 15.6363 12 15.6363C14.0091 15.6363 15.6363 14.0091 15.6363 12C15.6363 9.99094 14.0091 8.36361 12 8.36361ZM20.1273 11.0909C19.7091 7.29998 16.7 4.29091 12.9091 3.87274V2H11.0909V3.87274C7.29998 4.29091 4.29091 7.29998 3.87274 11.0909H2V12.9091H3.87274C4.29091 16.7 7.30002 19.7091 11.0909 20.1273V22H12.9091V20.1273C16.7 19.7091 19.7091 16.7 20.1273 12.9091H22V11.0909H20.1273ZM12 18.3636C8.48638 18.3636 5.63639 15.5136 5.63639 12C5.63639 8.48638 8.48638 5.63639 12 5.63639C15.5136 5.63639 18.3636 8.48634 18.3636 12C18.3636 15.5137 15.5136 18.3636 12 18.3636Z" fill="url(#52b784db23cd111da884b011737fe4df)"></path>
    </g>
  </g>
  <defs>
    <linearGradient id="52b784db23cd111da884b011737fe4df" x1="21.8559" y1="2.28822" x2="2.14411" y2="2.28822" gradientUnits="userSpaceOnUse">
      <stop stop-color="#025099"></stop>
      <stop offset="1" stop-color="#4776A2"></stop>
    </linearGradient>
  </defs>
</svg>