<svg viewBox="0 0 24 24" fill="none" xmlns="http://www.w3.org/2000/svg" xmlns:anim="http://www.w3.org/2000/anim" anim="" anim:transform-origin="50% 50%" anim:duration="0.5" anim:ease="power1.inOut">
  <g id="2299aefb7773f36b14d8adeb0dd2eb94">
    <g id="05522ecee610c0f3e778e7126511a1b5">
      <g id="4c67751160ea6a1728d6b16fcfc76a63">
        <g id="ce9b9bcc0c740a8b574dddd7710eab0b">
          <path fill-rule="evenodd" clip-rule="evenodd" d="M20.6118 9.49434L19.1161 4.37779C18.8762 3.55721 18.1542 3.00598 17.3198 3.00598H6.68016C5.8458 3.00598 5.12374 3.55721 4.88391 4.37779L3.38824 9.49434C2.59113 9.71591 2 10.4572 2 11.3445V17.1173C2 17.8245 2.5609 18.4002 3.24999 18.4002V19.0416C3.24999 20.1027 4.09104 20.9659 5.12498 20.9659H6.37497C7.40891 20.9659 8.24997 20.1027 8.24997 19.0416V18.4002H15.75V19.0416C15.75 20.1027 16.591 20.9659 17.625 20.9659H18.8749C19.9089 20.9659 20.7499 20.1027 20.7499 19.0416V18.4002C21.439 18.4002 21.9999 17.8245 21.9999 17.1173V11.3445C22 10.4572 21.4089 9.71591 20.6118 9.49434ZM6.08138 4.74612C6.16134 4.47239 6.40183 4.28886 6.68012 4.28886H17.3198C17.5981 4.28886 17.8386 4.47239 17.9185 4.74612L19.2849 9.42024H4.71499L6.08138 4.74612ZM6.37493 19.6831C6.71979 19.6831 6.99994 19.3956 6.99994 19.0417V18.4002H4.49994V19.0417C4.49994 19.3956 4.78009 19.6831 5.12495 19.6831H6.37493ZM19.5 19.0417C19.5 19.3956 19.2198 19.6831 18.8749 19.6831H17.625C17.2801 19.6831 16.9999 19.3956 16.9999 19.0417V18.4002H19.5V19.0417ZM3.24995 11.3446V17.1174H20.75V11.3446C20.75 10.9907 20.4698 10.7032 20.125 10.7032H3.87496C3.53011 10.7032 3.24995 10.9907 3.24995 11.3446Z" fill="#50565A"></path>
          <path d="M19.1161 4.37779L18.9721 4.41987V4.41987L19.1161 4.37779ZM20.6118 9.49434L20.4678 9.53642L20.4912 9.61651L20.5716 9.63886L20.6118 9.49434ZM4.88391 4.37779L5.02788 4.41987L5.02788 4.41987L4.88391 4.37779ZM3.38824 9.49434L3.42841 9.63886L3.5088 9.61651L3.53221 9.53642L3.38824 9.49434ZM3.24999 18.4002H3.39999V18.2502H3.24999V18.4002ZM8.24997 18.4002V18.2502H8.09997V18.4002H8.24997ZM15.75 18.4002H15.9V18.2502H15.75V18.4002ZM20.7499 18.4002V18.2502H20.5999V18.4002H20.7499ZM21.9999 11.3445L21.8499 11.3445V11.3445H21.9999ZM6.08138 4.74612L6.22536 4.78821L6.22537 4.78818L6.08138 4.74612ZM17.9185 4.74612L17.7745 4.78818L17.7745 4.78821L17.9185 4.74612ZM19.2849 9.42024V9.57024H19.485L19.4288 9.37815L19.2849 9.42024ZM4.71499 9.42024L4.57102 9.37815L4.51487 9.57024H4.71499V9.42024ZM6.99994 18.4002H7.14994V18.2502H6.99994V18.4002ZM4.49994 18.4002V18.2502H4.34994V18.4002H4.49994ZM16.9999 18.4002V18.2502H16.8499V18.4002H16.9999ZM19.5 18.4002H19.65V18.2502H19.5V18.4002ZM3.24995 17.1174H3.09995V17.2674H3.24995V17.1174ZM20.75 17.1174V17.2674H20.9V17.1174H20.75ZM18.9721 4.41987L20.4678 9.53642L20.7557 9.45225L19.2601 4.3357L18.9721 4.41987ZM17.3198 3.15598C18.0853 3.15598 18.7503 3.66109 18.9721 4.41987L19.2601 4.3357C19.0021 3.45333 18.223 2.85598 17.3198 2.85598V3.15598ZM6.68016 3.15598H17.3198V2.85598H6.68016V3.15598ZM5.02788 4.41987C5.24965 3.66109 5.91465 3.15598 6.68016 3.15598V2.85598C5.77694 2.85598 4.99783 3.45333 4.73993 4.33571L5.02788 4.41987ZM3.53221 9.53642L5.02788 4.41987L4.73993 4.3357L3.24426 9.45225L3.53221 9.53642ZM2.15 11.3445C2.15 10.5252 2.69562 9.84255 3.42841 9.63886L3.34806 9.34982C2.48663 9.58927 1.85 10.3893 1.85 11.3445H2.15ZM2.15 17.1173V11.3445H1.85V17.1173H2.15ZM3.24999 18.2502C2.64739 18.2502 2.15 17.7454 2.15 17.1173H1.85C1.85 17.9037 2.47441 18.5502 3.24999 18.5502V18.2502ZM3.39999 19.0416V18.4002H3.09999V19.0416H3.39999ZM5.12498 20.8159C4.17753 20.8159 3.39999 20.0236 3.39999 19.0416H3.09999C3.09999 20.1819 4.00456 21.1159 5.12498 21.1159V20.8159ZM6.37497 20.8159H5.12498V21.1159H6.37497V20.8159ZM8.09997 19.0416C8.09997 20.0236 7.32242 20.8159 6.37497 20.8159V21.1159C7.4954 21.1159 8.39997 20.1819 8.39997 19.0416H8.09997ZM8.09997 18.4002V19.0416H8.39997V18.4002H8.09997ZM15.75 18.2502H8.24997V18.5502H15.75V18.2502ZM15.9 19.0416V18.4002H15.6V19.0416H15.9ZM17.625 20.8159C16.6775 20.8159 15.9 20.0236 15.9 19.0416H15.6C15.6 20.1819 16.5045 21.1159 17.625 21.1159V20.8159ZM18.8749 20.8159H17.625V21.1159H18.8749V20.8159ZM20.5999 19.0416C20.5999 20.0236 19.8224 20.8159 18.8749 20.8159V21.1159C19.9954 21.1159 20.8999 20.1819 20.8999 19.0416H20.5999ZM20.5999 18.4002V19.0416H20.8999V18.4002H20.5999ZM21.8499 17.1173C21.8499 17.7454 21.3525 18.2502 20.7499 18.2502V18.5502C21.5255 18.5502 22.1499 17.9037 22.1499 17.1173H21.8499ZM21.8499 11.3445V17.1173H22.1499V11.3445H21.8499ZM20.5716 9.63886C21.3044 9.84255 21.85 10.5252 21.8499 11.3445L22.1499 11.3445C22.15 10.3893 21.5134 9.58927 20.6519 9.34982L20.5716 9.63886ZM6.68012 4.13886C6.33299 4.13886 6.03542 4.36849 5.9374 4.70407L6.22537 4.78818C6.28726 4.57629 6.47067 4.43886 6.68012 4.43886V4.13886ZM17.3198 4.13886H6.68012V4.43886H17.3198V4.13886ZM18.0625 4.70407C17.9645 4.36849 17.6669 4.13886 17.3198 4.13886V4.43886C17.5293 4.43886 17.7126 4.57628 17.7745 4.78818L18.0625 4.70407ZM19.4288 9.37815L18.0625 4.70404L17.7745 4.78821L19.1409 9.46233L19.4288 9.37815ZM4.71499 9.57024H19.2849V9.27024H4.71499V9.57024ZM5.93741 4.70404L4.57102 9.37815L4.85897 9.46233L6.22536 4.78821L5.93741 4.70404ZM6.84994 19.0417C6.84994 19.3165 6.6333 19.5331 6.37493 19.5331V19.8331C6.80627 19.8331 7.14994 19.4748 7.14994 19.0417H6.84994ZM6.84994 18.4002V19.0417H7.14994V18.4002H6.84994ZM4.49994 18.5502H6.99994V18.2502H4.49994V18.5502ZM4.64994 19.0417V18.4002H4.34994V19.0417H4.64994ZM5.12495 19.5331C4.86658 19.5331 4.64994 19.3165 4.64994 19.0417H4.34994C4.34994 19.4748 4.69361 19.8331 5.12495 19.8331V19.5331ZM6.37493 19.5331H5.12495V19.8331H6.37493V19.5331ZM18.8749 19.8331C19.3063 19.8331 19.65 19.4748 19.65 19.0417H19.35C19.35 19.3165 19.1333 19.5331 18.8749 19.5331V19.8331ZM17.625 19.8331H18.8749V19.5331H17.625V19.8331ZM16.8499 19.0417C16.8499 19.4748 17.1936 19.8331 17.625 19.8331V19.5331C17.3666 19.5331 17.1499 19.3165 17.1499 19.0417H16.8499ZM16.8499 18.4002V19.0417H17.1499V18.4002H16.8499ZM19.5 18.2502H16.9999V18.5502H19.5V18.2502ZM19.65 19.0417V18.4002H19.35V19.0417H19.65ZM3.39995 17.1174V11.3446H3.09995V17.1174H3.39995ZM20.75 16.9674H3.24995V17.2674H20.75V16.9674ZM20.6 11.3446V17.1174H20.9V11.3446H20.6ZM20.125 10.8532C20.3833 10.8532 20.6 11.0698 20.6 11.3446H20.9C20.9 10.9115 20.5563 10.5532 20.125 10.5532V10.8532ZM3.87496 10.8532H20.125V10.5532H3.87496V10.8532ZM3.39995 11.3446C3.39995 11.0698 3.61659 10.8532 3.87496 10.8532V10.5532C3.44362 10.5532 3.09995 10.9115 3.09995 11.3446H3.39995Z" fill="#596165"></path>
        </g>
        <g id="a79a3d0c7a21c6c6a935be8a5832794e">
          <path fill-rule="evenodd" clip-rule="evenodd" d="M4.57324 14.2107C4.57324 13.1495 5.4143 12.2864 6.44824 12.2864C7.48218 12.2864 8.32324 13.1495 8.32324 14.2107C8.32324 15.2718 7.48218 16.1349 6.44824 16.1349C5.4143 16.1349 4.57324 15.2718 4.57324 14.2107ZM5.82323 14.2107C5.82323 14.5646 6.10339 14.8521 6.44824 14.8521C6.79309 14.8521 7.07325 14.5646 7.07325 14.2107C7.07325 13.8567 6.79309 13.5692 6.44824 13.5692C6.10339 13.5692 5.82323 13.8567 5.82323 14.2107Z" fill="#50565A"></path>
          <path d="M6.44824 12.1364C5.32781 12.1364 4.42324 13.0704 4.42324 14.2107H4.72324C4.72324 13.2287 5.50079 12.4364 6.44824 12.4364V12.1364ZM8.47324 14.2107C8.47324 13.0704 7.56867 12.1364 6.44824 12.1364V12.4364C7.39569 12.4364 8.17324 13.2287 8.17324 14.2107H8.47324ZM6.44824 16.2849C7.56867 16.2849 8.47324 15.3509 8.47324 14.2107H8.17324C8.17324 15.1926 7.39569 15.9849 6.44824 15.9849V16.2849ZM4.42324 14.2107C4.42324 15.3509 5.32781 16.2849 6.44824 16.2849V15.9849C5.50079 15.9849 4.72324 15.1926 4.72324 14.2107H4.42324ZM6.44824 14.7021C6.18987 14.7021 5.97323 14.4854 5.97323 14.2107H5.67323C5.67323 14.6437 6.0169 15.0021 6.44824 15.0021V14.7021ZM6.92325 14.2107C6.92325 14.4854 6.70661 14.7021 6.44824 14.7021V15.0021C6.87958 15.0021 7.22325 14.6437 7.22325 14.2107H6.92325ZM6.44824 13.7192C6.70661 13.7192 6.92325 13.9359 6.92325 14.2107H7.22325C7.22325 13.7776 6.87958 13.4192 6.44824 13.4192V13.7192ZM5.97323 14.2107C5.97323 13.9359 6.18987 13.7192 6.44824 13.7192V13.4192C6.0169 13.4192 5.67323 13.7776 5.67323 14.2107H5.97323Z" fill="#596165"></path>
        </g>
        <g id="d9c7ca3643ca8b82213f4b4a71a47533">
          <path fill-rule="evenodd" clip-rule="evenodd" d="M16.1526 14.2107C16.1526 13.1495 16.9936 12.2864 18.0276 12.2864C19.0615 12.2864 19.9026 13.1495 19.9026 14.2107C19.9026 15.2718 19.0615 16.1349 18.0276 16.1349C16.9936 16.1349 16.1526 15.2718 16.1526 14.2107ZM17.4026 14.2107C17.4026 14.5646 17.6827 14.8521 18.0276 14.8521C18.3724 14.8521 18.6526 14.5646 18.6526 14.2107C18.6526 13.8567 18.3724 13.5692 18.0276 13.5692C17.6827 13.5692 17.4026 13.8567 17.4026 14.2107Z" fill="#50565A"></path>
          <path d="M18.0276 12.1364C16.9072 12.1364 16.0026 13.0704 16.0026 14.2107H16.3026C16.3026 13.2287 17.0801 12.4364 18.0276 12.4364V12.1364ZM20.0526 14.2107C20.0526 13.0704 19.148 12.1364 18.0276 12.1364V12.4364C18.975 12.4364 19.7526 13.2287 19.7526 14.2107H20.0526ZM18.0276 16.2849C19.148 16.2849 20.0526 15.3509 20.0526 14.2107H19.7526C19.7526 15.1926 18.975 15.9849 18.0276 15.9849V16.2849ZM16.0026 14.2107C16.0026 15.3509 16.9072 16.2849 18.0276 16.2849V15.9849C17.0801 15.9849 16.3026 15.1926 16.3026 14.2107H16.0026ZM18.0276 14.7021C17.7692 14.7021 17.5526 14.4854 17.5526 14.2107H17.2526C17.2526 14.6437 17.5962 15.0021 18.0276 15.0021V14.7021ZM18.5026 14.2107C18.5026 14.4854 18.286 14.7021 18.0276 14.7021V15.0021C18.4589 15.0021 18.8026 14.6437 18.8026 14.2107H18.5026ZM18.0276 13.7192C18.286 13.7192 18.5026 13.9359 18.5026 14.2107H18.8026C18.8026 13.7776 18.4589 13.4192 18.0276 13.4192V13.7192ZM17.5526 14.2107C17.5526 13.9359 17.7692 13.7192 18.0276 13.7192V13.4192C17.5962 13.4192 17.2526 13.7776 17.2526 14.2107H17.5526Z" fill="#596165"></path>
        </g>
      </g>
    </g>
  </g>
</svg>