<svg viewBox="0 0 24 24" fill="none" xmlns="http://www.w3.org/2000/svg" xmlns:anim="http://www.w3.org/2000/anim" anim="" anim:transform-origin="50% 50%" anim:duration="0.5" anim:ease="power1.inOut">
  <g id="ee4a8d5403226f804d40da1efae813ce">
    <g id="39a5fb51385a835e167213a6039058cb">
      <g id="3b0ec5330c83b1f7bbc5b67df42e6b80">
        <path id="523a43ee861f20f1157ec50b2baa2d87" fill-rule="evenodd" clip-rule="evenodd" d="M18.4354 1.34626H13.0014C12.4068 1.33975 11.8605 1.66269 11.5942 2.17807L10.5318 4.22658C10.4747 4.33545 10.3587 4.40339 10.2327 4.40182H7.52799L6.50165 5.59969L5.48047 6.79163V19.1308C5.48182 19.6965 5.71557 20.2385 6.13006 20.6369C6.54455 21.0352 7.10565 21.2572 7.68933 21.2537H17.7996C18.3824 21.2569 18.9424 21.0345 19.3554 20.636C19.7685 20.2375 20.0005 19.6957 19.9999 19.1308V2.85283C20.0006 2.45132 19.8357 2.06618 19.5419 1.78319C19.248 1.50021 18.8496 1.34288 18.4354 1.34626ZM16.9875 17.73C17.1181 17.8566 17.1181 18.0618 16.9875 18.1883C16.857 18.3149 16.6453 18.3149 16.5147 18.1883L12.7127 14.5029L8.91053 18.1883C8.77996 18.3149 8.56827 18.3149 8.4377 18.1883C8.30713 18.0618 8.30713 17.8566 8.4377 17.73L12.2398 14.0445L8.3704 10.2939C8.23983 10.1673 8.23983 9.96213 8.3704 9.83557C8.50097 9.709 8.71267 9.709 8.84324 9.83557L12.7127 13.5863L16.582 9.83557C16.6664 9.75369 16.7896 9.72172 16.9049 9.75168C17.0203 9.78165 17.1104 9.86901 17.1414 9.98085C17.1723 10.0927 17.1393 10.212 17.0548 10.2939L13.1854 14.0445L16.9875 17.73ZM18.2805 4.517C18.2805 4.69598 18.1651 4.81848 17.9804 4.81848H12.5521C12.4411 4.82389 12.3351 4.7734 12.2717 4.68492C12.2101 4.59806 12.2006 4.48608 12.2467 4.39061L13.0108 2.73154C13.0659 2.617 13.1862 2.54548 13.3165 2.54996H17.9807C18.1653 2.54996 18.2807 2.67357 18.2807 2.85256L18.2805 4.517Z" fill="url(#c7f4f1ad7f20f5debdda7f090d375506)"></path>
        <path id="cb5eac16035d9078442cce7f461b5502" fill-rule="evenodd" clip-rule="evenodd" d="M6.90145 4.12604L5.82381 3.24854L4.02637 5.33937L5.104 6.21682L6.31212 4.81154L6.90145 4.12604Z" fill="url(#5ff43049457be863dc0587c1211279a4)"></path>
      </g>
    </g>
  </g>
  <defs>
    <linearGradient id="c7f4f1ad7f20f5debdda7f090d375506" x1="19.8953" y1="1.63296" x2="5.58509" y2="1.63296" gradientUnits="userSpaceOnUse">
      <stop stop-color="#025099"></stop>
      <stop offset="1" stop-color="#4776A2"></stop>
    </linearGradient>
    <linearGradient id="5ff43049457be863dc0587c1211279a4" x1="6.88073" y1="3.29131" x2="4.04708" y2="3.29131" gradientUnits="userSpaceOnUse">
      <stop stop-color="#025099"></stop>
      <stop offset="1" stop-color="#4776A2"></stop>
    </linearGradient>
  </defs>
</svg>