<svg viewBox="0 0 24 24" fill="none" xmlns="http://www.w3.org/2000/svg" xmlns:anim="http://www.w3.org/2000/anim" anim="" anim:transform-origin="50% 50%" anim:duration="0.5" anim:ease="power1.inOut">
  <g id="2db26c7a4968726366b6eeddff224b0d">
    <g id="a9c951c1c139d83bd245383c9b64bec1">
      <path id="8d8e8a282a9e725036e0d038b200e085" fill-rule="evenodd" clip-rule="evenodd" d="M2 12C2 6.48578 6.48578 2 12 2C17.5142 2 22 6.48578 22 12C22 17.5142 17.5142 22 12 22C6.48578 22 2 17.5142 2 12ZM16.1667 17.4167C16.38 17.4167 16.5934 17.3349 16.7559 17.1724C17.0816 16.8466 17.0816 16.3201 16.7559 15.9941L12.8333 12.0717V7C12.8333 6.53918 12.4601 6.16672 12 6.16672C11.5399 6.16672 11.1667 6.53918 11.1667 7V12.4167C11.1667 12.6383 11.2542 12.8501 11.4109 13.0059L15.5776 17.1724C15.7399 17.3349 15.9534 17.4167 16.1667 17.4167Z" fill="url(#7b0c7fd481c286cb70961ccb09c5246c)"></path>
    </g>
  </g>
  <defs>
    <linearGradient id="7b0c7fd481c286cb70961ccb09c5246c" x1="21.8559" y1="2.42531" x2="2.41829" y2="2.42531" gradientUnits="userSpaceOnUse">
      <stop stop-color="#6BF1F1"></stop>
      <stop offset="1" stop-color="#3FD7D7"></stop>
    </linearGradient>
  </defs>
</svg>