<svg viewBox="0 0 72 72" fill="none" xmlns="http://www.w3.org/2000/svg" xmlns:anim="http://www.w3.org/2000/anim" anim="" anim:transform-origin="50% 50%" anim:duration="0.5" anim:ease="power1.inOut">
  <g id="046b066e7ede1a06b2a7375a1f1d9e63">
    <path id="a579d1adaee16247ccd4aaa4f280ed7d" d="M36 72C16.1499 72 0 55.8501 0 36C0 16.1499 16.1499 0 36 0C55.8501 0 72 16.1499 72 36C72 55.8501 55.8501 72 36 72Z" fill="#FFB461"></path>
    <path id="322a5717883ad38d0ab28a99276ae0fb" d="M52.8 60C32.95 60 16.8 43.8501 16.8 24C16.8 15.6909 19.6573 8.05172 24.4038 1.95239C10.233 6.79369 0 20.2106 0 36C0 55.85 16.1499 72 36 72C47.541 72 57.8038 66.5192 64.3963 58.0476C60.7517 59.2928 56.8606 60 52.8 60Z" fill="#FF9929"></path>
    <g id="34fb764db222f5eb0f84a77354be68f3">
      <path id="30ed9cbec4268123d88f92aff283a43a" d="M41.9971 20.9991V37.0919C41.9971 40.3998 39.3065 43.0909 35.9991 43.0909H35.9837C34.4385 43.0459 32.8433 42.4219 31.7567 41.3348C30.6246 40.2015 30 38.6953 30 37.0919V20.9991C30 17.7279 32.7158 15.0939 35.9837 15H35.9991C39.3065 15 41.9971 17.6917 41.9971 20.9991Z" fill="white"></path>
      <path id="f1553052119a892c6906593a94f7f876" d="M41.6763 50.6962C41.6763 53.8279 39.1296 56.3745 35.998 56.3745H35.9837C32.8603 56.3674 30.3208 53.8235 30.3208 50.6962C30.3208 47.5701 32.8603 45.0262 35.9837 45.019H35.998C39.1296 45.019 41.6763 47.5657 41.6763 50.6962Z" fill="white"></path>
    </g>
  </g>
</svg>