<svg width="20" height="20" viewBox="0 0 20 20" fill="none" xmlns="http://www.w3.org/2000/svg">
<path fill-rule="evenodd" clip-rule="evenodd" d="M4.10872 4.10877C7.36507 0.85243 12.6353 0.852886 15.8912 4.10877C19.1476 7.36515 19.1471 12.6354 15.8912 15.8912C12.6348 19.1476 7.36461 19.1471 4.10872 15.8912C0.852349 12.6349 0.852838 7.36466 4.10872 4.10877ZM10.9363 9.64717L9.58735 9.08843C8.96158 8.82919 8.77763 8.02677 9.22961 7.5432C9.87953 6.84698 11.0536 7.309 11.0536 8.26205C11.0536 8.63999 11.36 8.94638 11.738 8.94638C12.1159 8.94638 12.4223 8.63999 12.4223 8.26205C12.4223 7.16402 11.6877 6.23489 10.6843 5.93881V5.48128C10.6843 5.10333 10.378 4.79695 10 4.79695C9.62206 4.79695 9.31567 5.10333 9.31567 5.48128V5.9377C8.88767 6.06309 8.51748 6.30056 8.22957 6.6088C7.12301 7.79273 7.56183 9.73085 9.06364 10.3529L10.4126 10.9116C11.0411 11.172 11.2373 11.9952 10.7411 12.487C10.0861 13.1353 8.94633 12.6788 8.94633 11.738C8.94633 11.36 8.63994 11.0537 8.262 11.0537C7.88405 11.0537 7.57767 11.36 7.57767 11.738C7.57767 12.8075 8.28468 13.7604 9.31564 14.0607V14.5188C9.31564 14.8967 9.62203 15.2031 9.99997 15.2031C10.3779 15.2031 10.6843 14.8967 10.6843 14.5188V14.0598C11.0857 13.9428 11.4629 13.7206 11.7728 13.3886C12.8767 12.2042 12.4366 10.2686 10.9363 9.64717Z" fill="url(#paint0_linear_15_1304)"/>
<defs>
<linearGradient id="paint0_linear_15_1304" x1="18.2132" y1="1.90687" x2="1.78672" y2="1.90687" gradientUnits="userSpaceOnUse">
<stop stop-color="#025099"/>
<stop offset="1" stop-color="#4776A2"/>
</linearGradient>
</defs>
</svg>
