<svg width="24" height="24" viewBox="0 0 24 24" fill="none" xmlns="http://www.w3.org/2000/svg">
<path fill-rule="evenodd" clip-rule="evenodd" d="M2 10.3159V15.3526C2 16.8031 3.20829 17.9789 4.69882 17.9789H19.3012C20.7917 17.9789 22 16.8031 22 15.3526V10.3159C22 10.0637 21.7898 9.85916 21.5306 9.85916H2.46936C2.21016 9.85916 2 10.0637 2 10.3159ZM6.99349 13.513H5.74186C5.28822 13.513 4.92048 13.1552 4.92048 12.7138C4.92048 12.2723 5.28822 11.9145 5.74186 11.9145H6.99349C7.44712 11.9145 7.81487 12.2723 7.81487 12.7138C7.81487 13.1552 7.44712 13.513 6.99349 13.513Z" fill="#877EF2"/>
<path fill-rule="evenodd" clip-rule="evenodd" d="M22 7.80385V7.63893C22 6.1885 20.7917 5.01271 19.3012 5.01271H4.69882C3.20829 5.01271 2 6.1885 2 7.63893V7.80385C2 8.05608 2.21016 8.26059 2.46936 8.26059H21.5306C21.7898 8.26059 22 8.05608 22 7.80385Z" fill="#877EF2"/>
</svg>
