<svg width="14" height="20" viewBox="0 0 14 20" fill="none" xmlns="http://www.w3.org/2000/svg">
<path d="M7.57232 14.29L7.425 14.17C7.37025 14.1322 7.3108 14.1019 7.24821 14.08L7.07143 14C6.91215 13.9661 6.74709 13.973 6.59109 14.0201C6.43508 14.0673 6.29302 14.1531 6.17768 14.27C6.09092 14.3672 6.02117 14.4788 5.97143 14.6C5.8971 14.7822 5.87737 14.9827 5.91472 15.1763C5.95206 15.3699 6.04482 15.5479 6.18131 15.688C6.3178 15.828 6.49193 15.9238 6.68177 15.9633C6.87162 16.0028 7.0687 15.9843 7.24821 15.91C7.36558 15.852 7.47462 15.778 7.57232 15.69C7.7086 15.5494 7.80092 15.3708 7.83763 15.1768C7.87433 14.9828 7.85378 14.7821 7.77857 14.6C7.7296 14.4844 7.65963 14.3792 7.57232 14.29V14.29ZM10.8036 0H2.94643C2.16499 0 1.41555 0.316071 0.862989 0.87868C0.310427 1.44129 0 2.20435 0 3V17C0 17.7956 0.310427 18.5587 0.862989 19.1213C1.41555 19.6839 2.16499 20 2.94643 20H10.8036C11.585 20 12.3344 19.6839 12.887 19.1213C13.4396 18.5587 13.75 17.7956 13.75 17V3C13.75 2.20435 13.4396 1.44129 12.887 0.87868C12.3344 0.316071 11.585 0 10.8036 0ZM11.7857 17C11.7857 17.2652 11.6822 17.5196 11.4981 17.7071C11.3139 17.8946 11.0641 18 10.8036 18H2.94643C2.68595 18 2.43614 17.8946 2.25195 17.7071C2.06776 17.5196 1.96429 17.2652 1.96429 17V3C1.96429 2.73478 2.06776 2.48043 2.25195 2.29289C2.43614 2.10536 2.68595 2 2.94643 2H10.8036C11.0641 2 11.3139 2.10536 11.4981 2.29289C11.6822 2.48043 11.7857 2.73478 11.7857 3V17Z" fill="#004E98"/>
</svg>
