<svg viewBox="0 0 24 24" fill="none" xmlns="http://www.w3.org/2000/svg" xmlns:anim="http://www.w3.org/2000/anim" anim="" anim:transform-origin="50% 50%" anim:duration="0.5" anim:ease="power1.inOut">
  <g id="25028ca4dc7e66d49b3be33689c94cf7">
    <path id="2e9d2d41fe2e73e54069bf7970b33080" fill-rule="evenodd" clip-rule="evenodd" d="M12 24C18.6274 24 24 18.6274 24 12C24 5.37258 18.6274 0 12 0C5.37258 0 0 5.37258 0 12C0 18.6274 5.37258 24 12 24Z" fill="#877EF2"></path>
    <g id="a97bdb3c44ef48347c12ced0d4cb5192">
      <g id="5b438864a57193e773b11d19a29f6ed0">
        <path id="0879857dcaf46d2c7a0acb3958b09321" d="M8.86816 15.1987V17.7461C8.86816 17.924 8.98327 18.0817 9.15372 18.1377C9.19633 18.1514 9.24004 18.158 9.28321 18.158C9.4127 18.158 9.53777 18.0976 9.61746 17.9899L11.1188 15.9622L8.86816 15.1987Z" fill="white"></path>
        <path id="7f51bccb343bf227162a6a38bedec697" d="M17.1331 5.60227C17.0058 5.51275 16.8387 5.50066 16.7003 5.57261L4.24898 12.0261C4.10178 12.1024 4.0149 12.2584 4.02707 12.4226C4.0398 12.5874 4.14992 12.728 4.30654 12.7813L7.76801 13.9555L15.1398 7.69979L9.43539 14.5207L15.2366 16.4886C15.2798 16.5029 15.3252 16.5106 15.3705 16.5106C15.4458 16.5106 15.5205 16.4902 15.5864 16.4507C15.6915 16.387 15.7629 16.2799 15.7812 16.1596L17.303 5.99882C17.3257 5.84503 17.2604 5.69234 17.1331 5.60227Z" fill="white"></path>
      </g>
    </g>
  </g>
</svg>