<svg width="19" height="19" viewBox="0 0 19 19" fill="none" xmlns="http://www.w3.org/2000/svg">
<rect width="19" height="19" rx="9.5" fill="#41689D"/>
<path fill-rule="evenodd" clip-rule="evenodd" d="M12.5291 4.25C12.5291 3.55964 11.9695 3 11.2791 3C10.5891 3.00075 10.0299 3.55996 10.0291 4.25C10.0291 4.94036 10.5887 5.5 11.2791 5.5C11.9695 5.5 12.5291 4.94036 12.5291 4.25ZM11.3108 8.48772C11.4059 8.58743 11.6385 8.63842 11.7791 8.63882L13.2791 8.64003C13.5552 8.64003 13.7791 8.38966 13.7791 8.12364C13.7791 7.85761 13.5776 7.54302 13.3014 7.54302H12.1332C12.0628 7.54305 11.9956 7.51445 11.9482 7.46427L9.6927 5.07369C9.68089 5.0638 9.67009 5.05283 9.66045 5.04094C9.53861 4.92072 9.33888 4.85059 9.16839 4.88597L6.43816 5.36476C6.29413 5.38934 6.16896 5.47444 6.09666 5.59693L5.09666 7.28497C5.02956 7.39537 4.97598 7.64412 5.0111 7.7675C5.08465 8.02358 5.3941 8.19189 5.66066 8.12364C5.78848 8.09035 5.89709 8.00906 5.96216 7.89797L6.72058 6.76983C6.75723 6.70802 6.82038 6.66499 6.89308 6.6523L8.09557 6.3088C8.18111 6.29389 8.26855 6.32285 8.32648 6.38529C8.38442 6.44773 8.40452 6.53468 8.37957 6.61491L5.80141 14.8512C5.73682 15.0194 5.83732 15.3336 5.96216 15.4667C6.087 15.5997 6.50617 15.7075 6.6864 15.6625C6.86662 15.6175 7.00598 15.4798 7.04807 15.3051L8.37957 11.3953C8.40359 11.3182 8.46595 11.2578 8.54578 11.2343C8.62561 11.2107 8.71238 11.2271 8.77707 11.278L10.0897 12.5616C10.1376 12.5993 10.1693 12.6528 10.1787 12.7117L10.6506 15.1579C10.6934 15.4214 11.1359 15.5078 11.4094 15.4667C11.6829 15.4255 11.8181 15.1785 11.7754 14.915L11.2286 11.9313C11.208 11.814 11.1443 11.7079 11.0491 11.6321L9.61215 10.2648C9.53633 10.205 9.50369 10.1082 9.52865 10.0169L10.1253 7.63671C10.1487 7.55138 10.2187 7.48521 10.3077 7.46427C10.3967 7.44332 10.4904 7.47095 10.552 7.53628L11.0827 8.20178L11.3108 8.48772Z" fill="white"/>
</svg>
