<svg id="Layer_1" data-name="Layer 1" xmlns="http://www.w3.org/2000/svg" viewBox="0 0 1101.11 870.12"><defs><style>.cls-1{fill:#004e98;}.cls-1,.cls-2,.cls-3{fill-rule:evenodd;}.cls-2{fill:#fff;}.cls-3{fill:#ff6801;}</style></defs><path class="cls-1" d="M548.38,547.64C433.1,468.69,317.91,357.27,324,207c3.24-79.89,45.54-150,138-192.11,61.86-21.3,125.14-20.5,190.2,7.8,122.19,64.71,152.51,213.69,87,331.2-19.9,34.69-41.89,62.92-65.4,86.4L567,361c66.95-57.76,110.75-152.73,33-216.45C509.93,88.16,417.27,164,463.33,276.44c42.75,83.79,114.4,135.79,189.3,184.2l-104.25,87Z"/><path class="cls-2" d="M681.1,138.93a209.34,209.34,0,0,0-16.85-24.23l8.63-9.34A221.29,221.29,0,0,1,692,132.65l.12.2.11.22a223,223,0,0,1,10.6,24.58l-11.78,4.44a210,210,0,0,0-10-23.16ZM627.59,81.81a153.77,153.77,0,0,0-26.9-13.41,233.47,233.47,0,0,0-31.13-6.08l1.21-12.55a247.88,247.88,0,0,1,33.47,6.53l.33.09.31.12a166.63,166.63,0,0,1,29.47,14.66l-6.76,10.64ZM521.82,62.69a145.6,145.6,0,0,0-27.2,6.88A142.8,142.8,0,0,0,467,83.07l-6.91-10.54A155.28,155.28,0,0,1,518.88,50.4l2.94,12.29ZM431.44,113c-14.55,16-23.35,32.6-29.51,54.05l-12.42-2.69c6.8-24.65,16.47-43,33.36-60.93l8.57,9.57Zm-38,101.87q-.79,11.08-.53,22.33a174.24,174.24,0,0,0,8.23,36.47l-11.42,5.54a188.43,188.43,0,0,1-9.37-40.9l0-.27v-.26q-.29-11.73.51-23.31l12.61.4Zm28.08,102.84a372.29,372.29,0,0,0,31.72,45.49l-9.69,8.05a385.22,385.22,0,0,1-32.44-46.37l10.41-7.17ZM488.71,403c12.63,13.06,25.39,25.32,37.52,36.66l4.6,4.3-8.6,9.21-4.61-4.3c-12.52-11.72-25.58-24.29-38.46-37.63l9.55-8.24ZM713.55,215.78A164.4,164.4,0,0,1,711.42,243a193.68,193.68,0,0,1-8.57,33.05l-11.56-5.12A180.77,180.77,0,0,0,699,241a150.94,150.94,0,0,0,2-25.57l12.6.37ZM681.88,321.6c-8.7,15.58-18.43,30.57-28.13,44.92l-3.53,5.22-10.44-7.06,3.53-5.22c9.53-14.09,19.19-28.95,27.81-44.43l10.76,6.57Z"/><path class="cls-1" d="M450.78,619.53c11.79,13.39,13.82,29.31,13.2,45.9-1.93,19-10.34,28.55-19.5,37.05-13.25,7.93-26.5,8.28-39.75,6a47.23,47.23,0,0,1-25.65-14,41.92,41.92,0,0,1-14.55,6.6l-183.15.15c-8-.16-15.54-1.78-21.9-7.95-7,5.15-14.86,7.3-23.25,7.65l-77.7.15c-14.09-2-26-9.93-35.25-24.75-4.61-10.24-6.3-20.3-4.5-30.15,1.29-10.1,3.39-20,8.7-29.1,11.24,0,19.85,3.85,27.3,9.3a119.73,119.73,0,0,0-7.65,24.45C45.42,662,52.08,665.8,59.43,669a107.8,107.8,0,0,0,22.8,3l32.55.15a60,60,0,0,0,23.55-5.1c4.39-3.13,5.5-7.86,5.85-13.8l-1.2-99.9c9.85-4.61,20.64-4.49,32.1-.9q.48,53.67,1,107.33c1.17,9.3,7.32,10.71,13.35,12.3H228c-8.86-13.52-22.14-27.83-23.26-44A17.25,17.25,0,0,1,209,614.77c17.62-21.81,96.57-21.81,114.19,0a17.25,17.25,0,0,1,4.27,13.38c-1.12,16.13-14.39,30.44-23.26,44H337.9c16.63,1.11,28.39-1.42,30.6-11.1.47-10.6,1.71-21.25,9-32.25,5.21-9.29,12.72-17.28,30.75-19.35,18.14-3.17,32.39.09,42.53,10.12Zm519.07,26.21c12.32-8.08,24.8-15.83,44.4-7.35,13,10.76,16.63,22.2,18.45,33.75l-101.7.15c3.82-32.48-12.58-58.91-47.55-79.8a55.23,55.23,0,0,0-18.6,24.45,191.63,191.63,0,0,1,20.84,17.87c11,11.28,24.56,31,.76,37.33l-52.5.45c-2.65,8.86-2.34,18.46-.19,28.52l231-.09c5-1.34,7-4.51,6.41-12.06-10.55-59.09-43.2-111.74-117.48-74.72,2,13.18,8.12,23.13,16.16,31.5ZM811,610.34l.15,57c-1.28,20.83-14.77,31.58-38.85,33.6l-60.3.3q-7.65-.6-9-12.3c-3-17.07-2.86-33.43-17.55-53.1-25.21-20.74-47.63-20.12-62.25-7.35-1.68,2.29-.53,3.22,2.4,3.3,20.81.49,40.75,2.46,50.7,21.45,6,14.15,6.79,28.11,1.2,41.85-8.46,18.89-22.94,27-40.8,29.1l-55.2.75c-16.29-1.55-29.47-5.84-38.55-13.8-10.69-11.63-14.72-23.51-15-35.55.47-12.77,2.82-25.17,9.3-36.75,13.18-2,22.72,1.85,30.3,8.85a68.78,68.78,0,0,0-8,27.3c-.49,10.43,7.27,14.79,17.4,17.4l54.3.45c7.67-1.6,15.62-2.74,18.6-12.3,2.49-6.51,2-12.19-8-15.3-8-2.15-18.1-1.6-27.15-2.4-9.79.28-19.07,0-25.65-3-6.29-5.13-9.27-12.51-5.55-24.45,6.37-13.34,15.66-26.1,34.05-37,18.61-8.3,38.79-9.74,60.6-4.05,29.44,12,42.32,31.73,49.35,54.15l4.8,18.27c.39,3.66,2.27,5.21,5.06,5.47l26-.15c8.32.36,14.36-3.13,16.28-13.57l-1.35-48.23c10.7-4.83,21.56-5.45,32.66.11ZM243.63,628.91a122.15,122.15,0,0,1,39.29,0c15,2.44,11.71,5.37,4.1,16-5.85,8.19-12.66,14-19.76,19-10.69-5.67-19-15.53-26.1-27.6-1.23-2.91-1.94-5.71,2.47-7.42Zm172.2,6.3h.75a18,18,0,0,1,17.93,17.92v10.13a18,18,0,0,1-17.93,17.92h-.75a18,18,0,0,1-17.92-17.92V653.13a18,18,0,0,1,17.92-17.92Z"/><path class="cls-3" d="M503,712.64h20.4a6.32,6.32,0,0,1,6.3,6.3v20.4a6.31,6.31,0,0,1-6.3,6.3H503a6.32,6.32,0,0,1-6.3-6.3v-20.4a6.32,6.32,0,0,1,6.3-6.3Zm476.55-166.8h20.4a6.32,6.32,0,0,1,6.3,6.3v20.4a6.31,6.31,0,0,1-6.3,6.3h-20.4a6.32,6.32,0,0,1-6.3-6.3v-20.4a6.32,6.32,0,0,1,6.3-6.3Zm-223.8,0h20.4a6.32,6.32,0,0,1,6.3,6.3v20.4a6.31,6.31,0,0,1-6.3,6.3h-20.4a6.32,6.32,0,0,1-6.3-6.3v-20.4a6.32,6.32,0,0,1,6.3-6.3Zm-632.58,47H103c-8.7-.57-13.78-7.62-9.33-15.19,2.44-4.15,7.77-5.89,12.73-1.46,6,5.31,11.5,2.07,13.41-3.73s.26-9.78-3.07-12.52c-8.93-7.35-25.64-8.49-34.59-.55C72.24,567,69,580.79,69.08,592.87H61.94c-1.82,0-3,1.51-3.3,3.3l-2.7,15.6c-.31,1.79,1.48,3.3,3.3,3.3h63.9a3.32,3.32,0,0,0,3.3-3.3v-15.6a3.31,3.31,0,0,0-3.3-3.3ZM458.57,712.64H479a6.32,6.32,0,0,1,6.3,6.3v20.4a6.31,6.31,0,0,1-6.3,6.3h-20.4a6.32,6.32,0,0,1-6.3-6.3v-20.4a6.32,6.32,0,0,1,6.3-6.3Z"/><path class="cls-3" d="M201.8,760.46V870.12H175.12V824.36H133.55v45.76H107V760.46h26.52V803h41.57v-42.5Zm469.59.67h-28L616,870.12h28l18.54-73.79,18.55,73.79h25.39L723,804.27l16.55,65.85h28l-27.39-109H710.76l-17,67.55-17-67.55Zm175.34,89h-41.1l-6.83,20H770.88l40.18-108.89h30.55l40.18,108.89H853.56l-6.83-20Zm210.18-36,44.2,56H1069L1031.78,821v49.17h-26.53V760.46h26.53V808.7l37.53-48.24h31.8l-44.2,53.67Zm-97,36h-41.1l-6.83,20H884.11l40.18-108.89h30.55L995,870.12H966.79l-6.83-20ZM953.14,830l-13.65-40.33L925.68,830Zm-113.23,0-13.65-40.33L812.45,830ZM51.65,814.13l44.21,56H63.75L26.52,821v49.17H0V760.46H26.52V808.7l37.54-48.24h31.8L51.65,814.13Zm507.67-53.67V870.12H532.8V760.46ZM514.5,870.12H488L443.61,802.8v67.32H417.09V760.46h26.52L488,828.4V760.46H514.5V870.12ZM402,815.06q0,16.13-6.9,28.61a48.31,48.31,0,0,1-19.85,19.47q-13,7-30.48,7H303.39V760.46h41.42q17.69,0,30.56,6.82a47.58,47.58,0,0,1,19.77,19.24q6.9,12.4,6.9,28.54Zm-59.56,31.33q15.51,0,24.12-8.22t8.61-23.11q0-14.89-8.61-23.12t-24.12-8.22H329.92v62.67Zm-95.86-64.84v23H283.7v20H246.62v24.35h41.73v21.25H220.1V760.46h68.25v21.09Z"/></svg>